<?xml version="1.0" encoding="UTF-8" standalone="no"?>
<!-- Created with Inkscape (http://www.inkscape.org/) -->

<svg
   version="1.1"
   id="svg1"
   width="1740"
   height="490.66666"
   viewBox="0 0 1740 490.66666"
   sodipodi:docname="anjos-da-madrugada.ai"
   xmlns:inkscape="http://www.inkscape.org/namespaces/inkscape"
   xmlns:sodipodi="http://sodipodi.sourceforge.net/DTD/sodipodi-0.dtd"
   xmlns="http://www.w3.org/2000/svg"
   xmlns:svg="http://www.w3.org/2000/svg">
  <defs
     id="defs1">
    <clipPath
       clipPathUnits="userSpaceOnUse"
       id="clipPath2">
      <path
         d="M 0,368 H 1305 V 0 H 0 Z"
         transform="translate(-196.585,-134.9283)"
         id="path2" />
    </clipPath>
    <clipPath
       clipPathUnits="userSpaceOnUse"
       id="clipPath4">
      <path
         d="M 0,368 H 1305 V 0 H 0 Z"
         transform="translate(-1074.5751,-132.9483)"
         id="path4" />
    </clipPath>
    <clipPath
       clipPathUnits="userSpaceOnUse"
       id="clipPath6">
      <path
         d="M 0,368 H 1305 V 0 H 0 Z"
         transform="translate(-551.17501,-294.67831)"
         id="path6" />
    </clipPath>
    <clipPath
       clipPathUnits="userSpaceOnUse"
       id="clipPath8">
      <path
         d="M 0,368 H 1305 V 0 H 0 Z"
         transform="translate(-790.80512,-281.28831)"
         id="path8" />
    </clipPath>
    <clipPath
       clipPathUnits="userSpaceOnUse"
       id="clipPath10">
      <path
         d="M 0,368 H 1305 V 0 H 0 Z"
         transform="translate(-668.67502,-252.6183)"
         id="path10" />
    </clipPath>
    <clipPath
       clipPathUnits="userSpaceOnUse"
       id="clipPath12">
      <path
         d="M 0,368 H 1305 V 0 H 0 Z"
         transform="translate(-507.61501,-282.86831)"
         id="path12" />
    </clipPath>
    <clipPath
       clipPathUnits="userSpaceOnUse"
       id="clipPath14">
      <path
         d="M 0,368 H 1305 V 0 H 0 Z"
         transform="translate(-791.64504,-272.0583)"
         id="path14" />
    </clipPath>
    <clipPath
       clipPathUnits="userSpaceOnUse"
       id="clipPath16">
      <path
         d="M 0,368 H 1305 V 0 H 0 Z"
         transform="translate(-506.98501,-257.0583)"
         id="path16" />
    </clipPath>
    <clipPath
       clipPathUnits="userSpaceOnUse"
       id="clipPath18">
      <path
         d="M 0,368 H 1305 V 0 H 0 Z"
         transform="translate(-812.23502,-276.90831)"
         id="path18" />
    </clipPath>
    <clipPath
       clipPathUnits="userSpaceOnUse"
       id="clipPath20">
      <path
         d="M 0,368 H 1305 V 0 H 0 Z"
         transform="translate(-497.93501,-243.00831)"
         id="path20" />
    </clipPath>
    <clipPath
       clipPathUnits="userSpaceOnUse"
       id="clipPath22">
      <path
         d="M 0,368 H 1305 V 0 H 0 Z"
         transform="translate(-806.13505,-245.69831)"
         id="path22" />
    </clipPath>
    <clipPath
       clipPathUnits="userSpaceOnUse"
       id="clipPath24">
      <path
         d="M 0,368 H 1305 V 0 H 0 Z"
         transform="translate(-523.62511,-274.28831)"
         id="path24" />
    </clipPath>
    <clipPath
       clipPathUnits="userSpaceOnUse"
       id="clipPath26">
      <path
         d="M 0,368 H 1305 V 0 H 0 Z"
         transform="translate(-780.60504,-274.28831)"
         id="path26" />
    </clipPath>
    <clipPath
       clipPathUnits="userSpaceOnUse"
       id="clipPath28">
      <path
         d="M 0,368 H 1305 V 0 H 0 Z"
         transform="translate(-399.39501,-271.08831)"
         id="path28" />
    </clipPath>
    <clipPath
       clipPathUnits="userSpaceOnUse"
       id="clipPath30">
      <path
         d="M 0,368 H 1305 V 0 H 0 Z"
         transform="translate(-892.39502,-264.14831)"
         id="path30" />
    </clipPath>
    <clipPath
       clipPathUnits="userSpaceOnUse"
       id="clipPath32">
      <path
         d="M 0,368 H 1305 V 0 H 0 Z"
         transform="translate(-480.87501,-241.0683)"
         id="path32" />
    </clipPath>
    <clipPath
       clipPathUnits="userSpaceOnUse"
       id="clipPath34">
      <path
         d="M 0,368 H 1305 V 0 H 0 Z"
         transform="translate(-823.27502,-242.81831)"
         id="path34" />
    </clipPath>
    <clipPath
       clipPathUnits="userSpaceOnUse"
       id="clipPath36">
      <path
         d="M 0,368 H 1305 V 0 H 0 Z"
         transform="translate(-460.80501,-272.5083)"
         id="path36" />
    </clipPath>
    <clipPath
       clipPathUnits="userSpaceOnUse"
       id="clipPath38">
      <path
         d="M 0,368 H 1305 V 0 H 0 Z"
         transform="translate(-849.45505,-271.2783)"
         id="path38" />
    </clipPath>
    <clipPath
       clipPathUnits="userSpaceOnUse"
       id="clipPath40">
      <path
         d="M 0,368 H 1305 V 0 H 0 Z"
         transform="translate(-451.58501,-232.20831)"
         id="path40" />
    </clipPath>
    <clipPath
       clipPathUnits="userSpaceOnUse"
       id="clipPath42">
      <path
         d="M 0,368 H 1305 V 0 H 0 Z"
         transform="translate(-862.2451,-271.4283)"
         id="path42" />
    </clipPath>
    <clipPath
       clipPathUnits="userSpaceOnUse"
       id="clipPath44">
      <path
         d="M 0,368 H 1305 V 0 H 0 Z"
         transform="translate(-436.34501,-271.46831)"
         id="path44" />
    </clipPath>
    <clipPath
       clipPathUnits="userSpaceOnUse"
       id="clipPath46">
      <path
         d="M 0,368 H 1305 V 0 H 0 Z"
         transform="translate(-872.76505,-270.90831)"
         id="path46" />
    </clipPath>
    <clipPath
       clipPathUnits="userSpaceOnUse"
       id="clipPath48">
      <path
         d="M 0,368 H 1305 V 0 H 0 Z"
         transform="translate(-415.48501,-270.92831)"
         id="path48" />
    </clipPath>
    <clipPath
       clipPathUnits="userSpaceOnUse"
       id="clipPath50">
      <path
         d="M 0,368 H 1305 V 0 H 0 Z"
         transform="translate(-889.74512,-270.1683)"
         id="path50" />
    </clipPath>
    <clipPath
       clipPathUnits="userSpaceOnUse"
       id="clipPath52">
      <path
         d="M 0,368 H 1305 V 0 H 0 Z"
         transform="translate(-517.70501,-269.31831)"
         id="path52" />
    </clipPath>
    <clipPath
       clipPathUnits="userSpaceOnUse"
       id="clipPath54">
      <path
         d="M 0,368 H 1305 V 0 H 0 Z"
         transform="translate(-784.68512,-264.1083)"
         id="path54" />
    </clipPath>
    <clipPath
       clipPathUnits="userSpaceOnUse"
       id="clipPath56">
      <path
         d="M 0,368 H 1305 V 0 H 0 Z"
         transform="translate(-394.03501,-267.72831)"
         id="path56" />
    </clipPath>
    <clipPath
       clipPathUnits="userSpaceOnUse"
       id="clipPath58">
      <path
         d="M 0,368 H 1305 V 0 H 0 Z"
         transform="translate(-912.11515,-268.4583)"
         id="path58" />
    </clipPath>
    <clipPath
       clipPathUnits="userSpaceOnUse"
       id="clipPath60">
      <path
         d="M 0,368 H 1305 V 0 H 0 Z"
         transform="translate(-512.14501,-258.14831)"
         id="path60" />
    </clipPath>
    <clipPath
       clipPathUnits="userSpaceOnUse"
       id="clipPath62">
      <path
         d="M 0,368 H 1305 V 0 H 0 Z"
         transform="translate(-792.76502,-258.4383)"
         id="path62" />
    </clipPath>
    <clipPath
       clipPathUnits="userSpaceOnUse"
       id="clipPath64">
      <path
         d="M 0,368 H 1305 V 0 H 0 Z"
         transform="translate(-378.36501,-208.85831)"
         id="path64" />
    </clipPath>
    <clipPath
       clipPathUnits="userSpaceOnUse"
       id="clipPath66">
      <path
         d="M 0,368 H 1305 V 0 H 0 Z"
         transform="translate(-925.50505,-263.46831)"
         id="path66" />
    </clipPath>
    <clipPath
       clipPathUnits="userSpaceOnUse"
       id="clipPath68">
      <path
         d="M 0,368 H 1305 V 0 H 0 Z"
         transform="translate(-359.05501,-256.0383)"
         id="path68" />
    </clipPath>
    <clipPath
       clipPathUnits="userSpaceOnUse"
       id="clipPath70">
      <path
         d="M 0,368 H 1305 V 0 H 0 Z"
         transform="translate(-935.83502,-259.38831)"
         id="path70" />
    </clipPath>
    <clipPath
       clipPathUnits="userSpaceOnUse"
       id="clipPath72">
      <path
         d="M 0,368 H 1305 V 0 H 0 Z"
         transform="translate(-503.65501,-254.42831)"
         id="path72" />
    </clipPath>
    <clipPath
       clipPathUnits="userSpaceOnUse"
       id="clipPath74">
      <path
         d="M 0,368 H 1305 V 0 H 0 Z"
         transform="translate(-773.29502,-225.11831)"
         id="path74" />
    </clipPath>
    <clipPath
       clipPathUnits="userSpaceOnUse"
       id="clipPath76">
      <path
         d="M 0,368 H 1305 V 0 H 0 Z"
         transform="translate(-339.33501,-254.8683)"
         id="path76" />
    </clipPath>
    <clipPath
       clipPathUnits="userSpaceOnUse"
       id="clipPath78">
      <path
         d="M 0,368 H 1305 V 0 H 0 Z"
         transform="translate(-345.31501,-255.26831)"
         id="path78" />
    </clipPath>
    <clipPath
       clipPathUnits="userSpaceOnUse"
       id="clipPath80">
      <path
         d="M 0,368 H 1305 V 0 H 0 Z"
         transform="translate(-960.24512,-254.10831)"
         id="path80" />
    </clipPath>
    <clipPath
       clipPathUnits="userSpaceOnUse"
       id="clipPath82">
      <path
         d="M 0,368 H 1305 V 0 H 0 Z"
         transform="translate(-969.93512,-255.6483)"
         id="path82" />
    </clipPath>
    <clipPath
       clipPathUnits="userSpaceOnUse"
       id="clipPath84">
      <path
         d="M 0,368 H 1305 V 0 H 0 Z"
         transform="translate(-286.18501,-245.09831)"
         id="path84" />
    </clipPath>
    <clipPath
       clipPathUnits="userSpaceOnUse"
       id="clipPath86">
      <path
         d="M 0,368 H 1305 V 0 H 0 Z"
         transform="translate(-315.90501,-246.77831)"
         id="path86" />
    </clipPath>
    <clipPath
       clipPathUnits="userSpaceOnUse"
       id="clipPath88">
      <path
         d="M 0,368 H 1305 V 0 H 0 Z"
         transform="translate(-976.35505,-254.90831)"
         id="path88" />
    </clipPath>
    <clipPath
       clipPathUnits="userSpaceOnUse"
       id="clipPath90">
      <path
         d="M 0,368 H 1305 V 0 H 0 Z"
         transform="translate(-1019.8752,-246.45831)"
         id="path90" />
    </clipPath>
    <clipPath
       clipPathUnits="userSpaceOnUse"
       id="clipPath92">
      <path
         d="M 0,368 H 1305 V 0 H 0 Z"
         transform="translate(-993.24512,-252.0783)"
         id="path92" />
    </clipPath>
    <clipPath
       clipPathUnits="userSpaceOnUse"
       id="clipPath94">
      <path
         d="M 0,368 H 1305 V 0 H 0 Z"
         transform="translate(-302.53501,-252.66831)"
         id="path94" />
    </clipPath>
    <clipPath
       clipPathUnits="userSpaceOnUse"
       id="clipPath96">
      <path
         d="M 0,368 H 1305 V 0 H 0 Z"
         transform="translate(-486.79501,-241.3683)"
         id="path96" />
    </clipPath>
    <clipPath
       clipPathUnits="userSpaceOnUse"
       id="clipPath98">
      <path
         d="M 0,368 H 1305 V 0 H 0 Z"
         transform="translate(-787.18509,-213.12831)"
         id="path98" />
    </clipPath>
    <clipPath
       clipPathUnits="userSpaceOnUse"
       id="clipPath100">
      <path
         d="M 0,368 H 1305 V 0 H 0 Z"
         transform="translate(-808.60502,-213.30831)"
         id="path100" />
    </clipPath>
    <clipPath
       clipPathUnits="userSpaceOnUse"
       id="clipPath102">
      <path
         d="M 0,368 H 1305 V 0 H 0 Z"
         transform="translate(-501.74501,-206.64831)"
         id="path102" />
    </clipPath>
    <clipPath
       clipPathUnits="userSpaceOnUse"
       id="clipPath104">
      <path
         d="M 0,368 H 1305 V 0 H 0 Z"
         transform="translate(-255.96501,-236.55831)"
         id="path104" />
    </clipPath>
    <clipPath
       clipPathUnits="userSpaceOnUse"
       id="clipPath106">
      <path
         d="M 0,368 H 1305 V 0 H 0 Z"
         transform="translate(-1035.025,-242.4183)"
         id="path106" />
    </clipPath>
    <clipPath
       clipPathUnits="userSpaceOnUse"
       id="clipPath108">
      <path
         d="M 0,368 H 1305 V 0 H 0 Z"
         transform="translate(-1033.3551,-225.5583)"
         id="path108" />
    </clipPath>
    <clipPath
       clipPathUnits="userSpaceOnUse"
       id="clipPath110">
      <path
         d="M 0,368 H 1305 V 0 H 0 Z"
         transform="translate(-282.175,-240.21831)"
         id="path110" />
    </clipPath>
    <clipPath
       clipPathUnits="userSpaceOnUse"
       id="clipPath112">
      <path
         d="M 0,368 H 1305 V 0 H 0 Z"
         transform="translate(-489.84501,-189.26831)"
         id="path112" />
    </clipPath>
    <clipPath
       clipPathUnits="userSpaceOnUse"
       id="clipPath114">
      <path
         d="M 0,368 H 1305 V 0 H 0 Z"
         transform="translate(-844.81502,-237.98831)"
         id="path114" />
    </clipPath>
    <clipPath
       clipPathUnits="userSpaceOnUse"
       id="clipPath116">
      <path
         d="M 0,368 H 1305 V 0 H 0 Z"
         transform="translate(-292.98501,-237.36831)"
         id="path116" />
    </clipPath>
    <clipPath
       clipPathUnits="userSpaceOnUse"
       id="clipPath118">
      <path
         d="M 0,368 H 1305 V 0 H 0 Z"
         transform="translate(-1011.4551,-236.16831)"
         id="path118" />
    </clipPath>
    <clipPath
       clipPathUnits="userSpaceOnUse"
       id="clipPath120">
      <path
         d="M 0,368 H 1305 V 0 H 0 Z"
         transform="translate(-473.15501,-177.3683)"
         id="path120" />
    </clipPath>
    <clipPath
       clipPathUnits="userSpaceOnUse"
       id="clipPath122">
      <path
         d="M 0,368 H 1305 V 0 H 0 Z"
         transform="translate(-843.10502,-187.07831)"
         id="path122" />
    </clipPath>
    <clipPath
       clipPathUnits="userSpaceOnUse"
       id="clipPath124">
      <path
         d="M 0,368 H 1305 V 0 H 0 Z"
         transform="translate(-431.42501,-224.37831)"
         id="path124" />
    </clipPath>
    <clipPath
       clipPathUnits="userSpaceOnUse"
       id="clipPath126">
      <path
         d="M 0,368 H 1305 V 0 H 0 Z"
         transform="translate(-855.715,-176.87831)"
         id="path126" />
    </clipPath>
    <clipPath
       clipPathUnits="userSpaceOnUse"
       id="clipPath128">
      <path
         d="M 0,368 H 1305 V 0 H 0 Z"
         transform="translate(-281.88501,-213.08831)"
         id="path128" />
    </clipPath>
    <clipPath
       clipPathUnits="userSpaceOnUse"
       id="clipPath130">
      <path
         d="M 0,368 H 1305 V 0 H 0 Z"
         transform="translate(-1006.335,-231.9183)"
         id="path130" />
    </clipPath>
    <clipPath
       clipPathUnits="userSpaceOnUse"
       id="clipPath132">
      <path
         d="M 0,368 H 1305 V 0 H 0 Z"
         transform="translate(-423.93501,-219.95831)"
         id="path132" />
    </clipPath>
    <clipPath
       clipPathUnits="userSpaceOnUse"
       id="clipPath134">
      <path
         d="M 0,368 H 1305 V 0 H 0 Z"
         transform="translate(-874.44505,-203.79831)"
         id="path134" />
    </clipPath>
    <clipPath
       clipPathUnits="userSpaceOnUse"
       id="clipPath136">
      <path
         d="M 0,368 H 1305 V 0 H 0 Z"
         transform="translate(-307.30501,-225.1083)"
         id="path136" />
    </clipPath>
    <clipPath
       clipPathUnits="userSpaceOnUse"
       id="clipPath138">
      <path
         d="M 0,368 H 1305 V 0 H 0 Z"
         transform="translate(-999.80515,-228.9183)"
         id="path138" />
    </clipPath>
    <clipPath
       clipPathUnits="userSpaceOnUse"
       id="clipPath140">
      <path
         d="M 0,368 H 1305 V 0 H 0 Z"
         transform="translate(-897.06505,-173.7683)"
         id="path140" />
    </clipPath>
    <clipPath
       clipPathUnits="userSpaceOnUse"
       id="clipPath142">
      <path
         d="M 0,368 H 1305 V 0 H 0 Z"
         transform="translate(-421.38501,-154.5683)"
         id="path142" />
    </clipPath>
    <clipPath
       clipPathUnits="userSpaceOnUse"
       id="clipPath144">
      <path
         d="M 0,368 H 1305 V 0 H 0 Z"
         transform="translate(-313.48501,-172.5083)"
         id="path144" />
    </clipPath>
    <clipPath
       clipPathUnits="userSpaceOnUse"
       id="clipPath146">
      <path
         d="M 0,368 H 1305 V 0 H 0 Z"
         transform="translate(-984.06505,-178.8083)"
         id="path146" />
    </clipPath>
    <clipPath
       clipPathUnits="userSpaceOnUse"
       id="clipPath148">
      <path
         d="M 0,368 H 1305 V 0 H 0 Z"
         transform="translate(-388.62501,-216.84831)"
         id="path148" />
    </clipPath>
    <clipPath
       clipPathUnits="userSpaceOnUse"
       id="clipPath150">
      <path
         d="M 0,368 H 1305 V 0 H 0 Z"
         transform="translate(-914.1151,-212.2683)"
         id="path150" />
    </clipPath>
    <clipPath
       clipPathUnits="userSpaceOnUse"
       id="clipPath152">
      <path
         d="M 0,368 H 1305 V 0 H 0 Z"
         transform="translate(-378.74501,-142.6283)"
         id="path152" />
    </clipPath>
    <clipPath
       clipPathUnits="userSpaceOnUse"
       id="clipPath154">
      <path
         d="M 0,368 H 1305 V 0 H 0 Z"
         transform="translate(-930.3751,-211.34831)"
         id="path154" />
    </clipPath>
    <clipPath
       clipPathUnits="userSpaceOnUse"
       id="clipPath156">
      <path
         d="M 0,368 H 1305 V 0 H 0 Z"
         transform="translate(-361.12501,-161.4983)"
         id="path156" />
    </clipPath>
    <clipPath
       clipPathUnits="userSpaceOnUse"
       id="clipPath158">
      <path
         d="M 0,368 H 1305 V 0 H 0 Z"
         transform="translate(-951.19502,-211.44831)"
         id="path158" />
    </clipPath>
    <clipPath
       clipPathUnits="userSpaceOnUse"
       id="clipPath160">
      <path
         d="M 0,368 H 1305 V 0 H 0 Z"
         transform="translate(-964.65505,-163.13831)"
         id="path160" />
    </clipPath>
    <clipPath
       clipPathUnits="userSpaceOnUse"
       id="clipPath162">
      <path
         d="M 0,368 H 1305 V 0 H 0 Z"
         transform="translate(-331.66501,-158.7983)"
         id="path162" />
    </clipPath>
    <clipPath
       clipPathUnits="userSpaceOnUse"
       id="clipPath164">
      <path
         d="M 0,368 H 1305 V 0 H 0 Z"
         transform="translate(-711.16502,-138.4083)"
         id="path164" />
    </clipPath>
    <clipPath
       clipPathUnits="userSpaceOnUse"
       id="clipPath166">
      <path
         d="M 0,368 H 1305 V 0 H 0 Z"
         transform="translate(-749.85502,-148.0983)"
         id="path166" />
    </clipPath>
    <clipPath
       clipPathUnits="userSpaceOnUse"
       id="clipPath168">
      <path
         d="M 0,368 H 1305 V 0 H 0 Z"
         transform="translate(-563.84501,-129.8883)"
         id="path168" />
    </clipPath>
    <clipPath
       clipPathUnits="userSpaceOnUse"
       id="clipPath170">
      <path
         d="M 0,368 H 1305 V 0 H 0 Z"
         transform="translate(-622.79501,-146.0483)"
         id="path170" />
    </clipPath>
    <clipPath
       clipPathUnits="userSpaceOnUse"
       id="clipPath172">
      <path
         d="M 0,368 H 1305 V 0 H 0 Z"
         transform="translate(-649.96502,-125.2983)"
         id="path172" />
    </clipPath>
    <clipPath
       clipPathUnits="userSpaceOnUse"
       id="clipPath174">
      <path
         d="M 0,368 H 1305 V 0 H 0 Z"
         transform="translate(-813.92912,-126.7745)"
         id="path174" />
    </clipPath>
    <clipPath
       clipPathUnits="userSpaceOnUse"
       id="clipPath176">
      <path
         d="M 0,368 H 1305 V 0 H 0 Z"
         transform="translate(-785.52504,-134.0883)"
         id="path176" />
    </clipPath>
    <clipPath
       clipPathUnits="userSpaceOnUse"
       id="clipPath178">
      <path
         d="M 0,368 H 1305 V 0 H 0 Z"
         transform="translate(-725.09502,-58.908299)"
         id="path178" />
    </clipPath>
    <clipPath
       clipPathUnits="userSpaceOnUse"
       id="clipPath180">
      <path
         d="M 0,368 H 1305 V 0 H 0 Z"
         transform="translate(-421.69501,-57.968301)"
         id="path180" />
    </clipPath>
    <clipPath
       clipPathUnits="userSpaceOnUse"
       id="clipPath182">
      <path
         d="M 0,368 H 1305 V 0 H 0 Z"
         transform="translate(-471.88501,-57.468299)"
         id="path182" />
    </clipPath>
    <clipPath
       clipPathUnits="userSpaceOnUse"
       id="clipPath184">
      <path
         d="M 0,368 H 1305 V 0 H 0 Z"
         transform="translate(-645.10502,-59.688299)"
         id="path184" />
    </clipPath>
    <clipPath
       clipPathUnits="userSpaceOnUse"
       id="clipPath186">
      <path
         d="M 0,368 H 1305 V 0 H 0 Z"
         transform="translate(-529.22501,-81.388305)"
         id="path186" />
    </clipPath>
    <clipPath
       clipPathUnits="userSpaceOnUse"
       id="clipPath188">
      <path
         d="M 0,368 H 1305 V 0 H 0 Z"
         transform="translate(-589.87511,-81.7083)"
         id="path188" />
    </clipPath>
    <clipPath
       clipPathUnits="userSpaceOnUse"
       id="clipPath190">
      <path
         d="M 0,368 H 1305 V 0 H 0 Z"
         transform="translate(-772.74512,-57.868304)"
         id="path190" />
    </clipPath>
    <clipPath
       clipPathUnits="userSpaceOnUse"
       id="clipPath192">
      <path
         d="M 0,368 H 1305 V 0 H 0 Z"
         transform="translate(-829.90502,-81.0783)"
         id="path192" />
    </clipPath>
    <clipPath
       clipPathUnits="userSpaceOnUse"
       id="clipPath194">
      <path
         d="M 0,368 H 1305 V 0 H 0 Z"
         transform="translate(-892.78502,-57.498299)"
         id="path194" />
    </clipPath>
  </defs>
  <sodipodi:namedview
     id="namedview1"
     pagecolor="#ffffff"
     bordercolor="#000000"
     borderopacity="0.25"
     inkscape:showpageshadow="2"
     inkscape:pageopacity="0.0"
     inkscape:pagecheckerboard="0"
     inkscape:deskcolor="#d1d1d1">
    <inkscape:page
       x="0"
       y="0"
       inkscape:label="1"
       id="page1"
       width="1740"
       height="490.66666"
       margin="46.826401 174.78667 46.826668 174.78534"
       bleed="0" />
  </sodipodi:namedview>
  <g
     id="layer-MC0"
     inkscape:groupmode="layer"
     inkscape:label="Camada 1">
    <path
       id="path1"
       d="m 0,0 c 12.06,-0.913 22.953,-1.567 32.68,-1.96 3.25,-0.13 6.69,-0.07 10.09,0.4 8.99,1.25 17.65,2.93 26.82,2.2 5.56,-0.447 11.197,-0.683 16.91,-0.71 1.99,-0.01 3.71,-0.65 5.61,-1.1 0.627,-0.153 0.73,0.017 0.31,0.51 C 91.127,0.86 89.52,1.877 87.6,2.39 78.367,4.843 69.96,6.07 62.38,6.07 59.347,6.07 54.483,5.23 47.79,3.55 43.07,2.37 36.03,1.58 30.38,1.54 20.227,1.46 10.027,1.173 -0.22,0.68 -0.273,0.673 -0.3,0.647 -0.3,0.6 V 0.31 C -0.3,0.117 -0.2,0.013 0,0 m 1.16,117.41 c -5.18,-0.92 -10.847,-1.54 -17,-1.86 -0.527,-0.027 -0.987,-0.17 -1.38,-0.43 -0.52,-0.34 -0.47,-0.52 0.15,-0.54 5.633,-0.147 11.113,-0.103 16.44,0.13 5.553,0.24 10.2,2.01 13.94,5.31 6.23,5.49 12.61,10.87 18.31,17.09 7.88,8.58 16.33,18.13 25.09,25.17 0.7,0.56 1.45,1.083 2.25,1.57 2.04,1.24 1.873,1.717 -0.5,1.43 -1.887,-0.233 -3.97,-1.07 -6.25,-2.51 -7.567,-4.787 -14.467,-10.893 -20.7,-18.32 -3.08,-3.67 -5.86,-7.54 -9.25,-10.95 -4.047,-4.067 -7.88,-7.783 -11.5,-11.15 -2.853,-2.66 -6.053,-4.307 -9.6,-4.94 m 222.45,38.76 c -0.178,-0.041 -0.289,-0.218 -0.248,-0.395 0.031,-0.138 0.147,-0.241 0.288,-0.255 1.533,-0.193 3.047,-0.203 4.54,-0.03 46.18,5.34 93.16,11.75 135.06,30.89 2.147,0.98 4.447,1.483 6.9,1.51 0.376,-0.003 0.678,-0.31 0.675,-0.685 0,-0.025 -0.002,-0.05 -0.005,-0.075 -0.207,-1.64 -0.813,-3.1 -1.82,-4.38 -5.44,-6.93 -12.68,-14.58 -20.62,-18.68 -9.72,-5.027 -20.11,-9.473 -31.17,-13.34 -0.173,-0.053 -0.277,0.007 -0.31,0.18 l -0.05,0.29 c -0.041,0.215 0.059,0.432 0.25,0.54 5.727,3.233 10.827,6.657 15.3,10.27 0.407,0.327 0.693,0.73 0.86,1.21 0.28,0.767 0.057,0.967 -0.67,0.6 -12.49,-6.24 -25.66,-11.66 -39.03,-13.53 -4.82,-0.67 -9.08,-2.67 -13.65,-4.07 -11.82,-3.627 -23.75,-4.777 -35.79,-3.45 -3.91,0.43 -6.53,-5.05 -10.78,-0.34 -0.54,0.601 -1.397,0.805 -2.15,0.51 -1.047,-0.413 -2.11,-0.82 -3.19,-1.22 -5.27,-1.96 -13.62,0.83 -18.47,3.11 -1.09,0.51 -2.43,0.11 -3.45,-0.39 -9.473,-4.68 -19.44,-8.927 -29.9,-12.74 -6.507,-2.38 -13.04,-4.143 -19.6,-5.29 -4.633,-0.807 -8.86,-0.667 -12.68,0.42 -0.743,0.211 -1.538,0.117 -2.21,-0.26 -5.847,-3.247 -12.473,-4.107 -19.88,-2.58 -1.3,0.27 -2.68,-0.18 -3.73,-0.93 -2.65,-1.89 -6.77,-3.41 -9.54,-1.03 -0.733,0.627 -1.527,1.13 -2.38,1.51 -0.34,0.147 -0.673,0.137 -1,-0.03 l -2.7,-1.43 c -1.124,-0.597 -2.514,-0.336 -3.35,0.63 l -1.66,1.92 c -0.53,0.615 -1.462,0.681 -2.081,0.147 -0.006,-0.006 -0.013,-0.011 -0.019,-0.017 C 87,117.32 76.54,111.33 65,110.47 c -2.56,-0.19 -4.78,0.62 -7.24,0.99 -0.748,0.112 -1.446,-0.408 -1.559,-1.162 -0.005,-0.032 -0.008,-0.065 -0.011,-0.098 -0.153,-2.133 -0.49,-4.127 -1.01,-5.98 -1.04,-3.67 -1.53,-7.31 -2.26,-11.03 -1.907,-9.647 -4,-18.927 -6.28,-27.84 -0.74,-2.893 -1.177,-5.82 -1.31,-8.78 -0.127,-2.867 -0.43,-5.813 -0.91,-8.84 -0.254,-1.639 0.683,-3.229 2.24,-3.8 4.493,-1.64 9.407,-3.463 14.74,-5.47 1.92,-0.72 3.98,-1.48 6.02,-1.65 7.19,-0.59 12.7,-2.73 19.73,-6.3 15.073,-7.647 28.58,-15.75 40.52,-24.31 9.96,-7.14 12.69,-16.46 8.19,-27.96 -1.6,-4.093 -4.543,-6.203 -8.83,-6.33 -43.79,-1.3 -87.56,-2.19 -131.28,-2.76 -17.33,-0.22 -35.48,0.1 -52.5,-0.16 -2.787,-0.047 -5.453,-0.223 -8,-0.53 -0.368,-0.042 -0.7,0.222 -0.741,0.59 -0.02,0.171 0.027,0.343 0.131,0.48 3.1,4.06 8.39,10.22 13.77,10.99 8.32,1.2 16.577,3.917 24.77,8.15 2.47,1.28 4.23,3.4 6.2,5.41 3.42,3.47 8.77,4.9 13.86,5.18 0.463,0.028 0.816,0.427 0.787,0.89 -0.009,0.158 -0.064,0.311 -0.157,0.44 -3.33,4.56 -9.61,13.81 -8.15,19.73 1.37,5.57 4.12,11.88 8.57,15.69 1.133,0.973 1.803,2.27 2.01,3.89 0.053,0.387 0.217,0.72 0.49,1 1.067,1.08 2.407,1.667 4.02,1.76 5.747,0.327 11.97,0.343 18.67,0.05 3.23,-0.15 9.05,0.25 11.88,1.91 0.55,0.32 0.732,1.026 0.407,1.577 -0.154,0.261 -0.404,0.453 -0.697,0.533 -2.647,0.727 -5.14,1.083 -7.48,1.07 C 15.45,47.76 7.453,46.6 -0.4,44.32 -3.89,43.31 -4.26,39.43 -8.6,39.4 c -0.414,-0.007 -0.756,0.323 -0.763,0.737 -0.001,0.108 0.02,0.214 0.063,0.313 2.35,5.37 2.49,9.9 2.75,15.63 0.02,0.487 0.267,0.68 0.74,0.58 0.93,-0.19 2.01,-0.38 2.95,-0.3 5.873,0.46 11.703,0.59 17.49,0.39 4.49,-0.15 8.76,0.32 13.19,1.13 0.525,0.089 0.939,0.491 1.04,1.01 0.21,1.06 -0.13,1.98 -1.23,2.19 -4.26,0.787 -8.82,0.91 -13.68,0.37 -7.153,-0.8 -13.6,-2.063 -19.34,-3.79 -0.604,-0.177 -1.238,0.169 -1.415,0.773 -0.051,0.175 -0.059,0.359 -0.025,0.537 0.83,4.32 1.26,7.62 -0.4,12.05 -2.1,5.6 -3.9,11.82 -5.4,18.66 -0.833,3.793 -2.56,8.763 -5.18,14.91 -1.65,3.86 -2.15,7.97 -3.88,11.79 -1.49,3.26 0.54,6.92 1.78,10 2.82,6.97 2.43,15.06 7.74,20.74 3.787,4.047 6.963,7 9.53,8.86 5.12,3.71 11.73,5.17 15.82,10.76 2.913,3.993 6.49,7.827 10.73,11.5 1.95,1.69 3.33,3.69 4.78,5.75 0.237,0.341 0.636,0.531 1.05,0.5 1.827,-0.147 3.68,-0.207 5.56,-0.18 6.71,0.09 12.68,-2.81 19.42,-2.8 0.348,-0.002 0.632,0.278 0.634,0.626 0,0.045 -0.005,0.09 -0.014,0.134 -0.55,2.6 -5.19,4.83 -7.26,5.22 -5.67,1.08 -12.09,0.96 -17.41,-1.46 -0.373,-0.166 -0.811,0.002 -0.977,0.375 -0.066,0.15 -0.081,0.316 -0.043,0.475 1.067,4.213 3.63,6.9 7.69,8.06 8.847,2.527 17.533,3.447 26.06,2.76 2.62,-0.21 5.39,-2.23 7.54,-3.61 3.91,-2.51 8.74,-6.21 9.91,-10.78 1.69,-6.62 -5.4,-12.01 -9.75,-15.43 -1.58,-1.253 -1.37,-1.99 0.63,-2.21 2.66,-0.293 5.14,-0.75 7.44,-1.37 8.76,-2.36 17.3,-4.92 25.62,-7.68 6.32,-2.09 13.14,-2.2 20.15,-2.44 28.36,-0.96 56.88,0.41 83.94,5.64 11.15,2.16 22.02,4.91 32.21,9.31 0.467,0.2 0.977,0.353 1.53,0.46 0.363,0.073 0.716,-0.163 0.788,-0.526 0.017,-0.084 0.018,-0.17 0.002,-0.254 -1.4,-7.18 -13.6,-11.12 -19.8,-12.64"
       style="fill:#231f20;fill-opacity:1;fill-rule:nonzero;stroke:none"
       transform="matrix(1.3333333,0,0,-1.3333333,262.11333,310.76227)"
       clip-path="url(#clipPath2)" />
    <path
       id="path3"
       d="m 0,0 c 11.22,0.25 22.53,1.41 33.63,1.85 0.12,0.007 0.183,0.073 0.19,0.2 0.007,0.147 -0.06,0.23 -0.2,0.25 -11.36,1.41 -22.89,1.15 -34.63,1.39 -10.86,0.22 -21.07,5.19 -32.06,4.33 -5.547,-0.44 -11.713,-1.427 -18.5,-2.96 -3.04,-0.687 -5.477,-1.917 -7.31,-3.69 -0.107,-0.1 -0.19,-0.213 -0.25,-0.34 -0.093,-0.193 -0.017,-0.367 0.23,-0.52 0.125,-0.075 0.28,-0.087 0.42,-0.03 1.94,0.773 3.923,1.21 5.95,1.31 7.26,0.347 14.47,0.643 21.63,0.89 6.03,0.21 12.43,-0.79 18.34,-1.82 C -8.68,0.18 -4.493,-0.107 0,0 m 34.49,58.51 c 1.02,-0.073 2.04,-0.1 3.06,-0.08 0.349,0.005 0.624,0.294 0.616,0.647 -0.005,0.187 -0.091,0.364 -0.236,0.483 -1,0.807 -2.127,1.317 -3.38,1.53 C 24.9,62.72 15.15,65.03 5.46,62.87 4.745,62.706 4.294,61.996 4.453,61.284 4.518,60.995 4.679,60.736 4.91,60.55 6.72,59.09 12.8,58.69 15.1,58.76 c 7.713,0.207 14.177,0.123 19.39,-0.25 m 5.03,59.84 c -5.91,0.71 -12.23,1.56 -16.44,5.61 -3.533,3.4 -7.187,6.963 -10.96,10.69 -3.47,3.44 -6.38,7.19 -9.44,10.93 -6.46,7.887 -13.657,14.323 -21.59,19.31 -1.66,1.047 -4.103,1.91 -7.33,2.59 -0.453,0.1 -0.657,-0.08 -0.61,-0.54 0.033,-0.387 0.217,-0.65 0.55,-0.79 1.04,-0.453 2.04,-1.057 3,-1.81 9.01,-7.1 17.38,-16.67 25.32,-25.34 5.75,-6.27 12.17,-11.62 18.6,-17.27 3.16,-2.773 6.647,-4.33 10.46,-4.67 6.073,-0.553 12.503,-0.76 19.29,-0.62 0.187,0.007 0.287,0.107 0.3,0.3 l 0.01,0.26 c 0,0.04 -0.02,0.063 -0.06,0.07 -3.727,0.413 -7.427,0.84 -11.1,1.28 m -230.21,39.06 c 0.793,0.153 0.8,0.343 0.02,0.57 -5.43,1.56 -18.95,6.5 -19.38,13.05 -0.027,0.391 0.269,0.73 0.66,0.757 0.113,0.007 0.226,-0.012 0.33,-0.057 6.013,-2.633 11.94,-4.72 17.78,-6.26 15.247,-4.02 31.69,-6.717 49.33,-8.09 20.793,-1.613 40.6,-1.91 59.42,-0.89 4.12,0.22 8.23,1.02 12.33,2.4 9.133,3.073 18.333,5.767 27.6,8.08 1.47,0.37 2.9,0.33 4.37,0.51 2.207,0.267 2.41,1.05 0.61,2.35 -6.52,4.72 -14.55,12.72 -6.55,20.83 3.18,3.22 10.17,8.79 15.26,9.13 8.18,0.533 16.547,-0.437 25.1,-2.91 4.26,-1.233 6.8,-3.98 7.62,-8.24 0.067,-0.359 -0.173,-0.702 -0.537,-0.766 -0.167,-0.03 -0.34,0.005 -0.483,0.096 -3.77,2.5 -9.56,2.27 -14.43,2 -4,-0.22 -7.317,-1.787 -9.95,-4.7 -0.388,-0.423 -0.36,-1.081 0.064,-1.469 0.172,-0.158 0.393,-0.254 0.626,-0.271 1.393,-0.107 2.757,-0.007 4.09,0.3 3.873,0.913 7.587,1.67 11.14,2.27 3.05,0.51 6.14,-0.13 9.12,0.73 0.42,0.119 0.867,-0.037 1.11,-0.39 1.77,-2.54 3.4,-4.84 5.82,-6.97 3.987,-3.5 7.43,-7.22 10.33,-11.16 4.17,-5.67 11.98,-7.24 17.13,-11.56 2.96,-2.487 5.74,-5.203 8.34,-8.15 3.63,-4.12 4.76,-11.09 6.03,-16.45 1.24,-5.25 4.74,-8.99 2.71,-14.66 -1.31,-3.69 -2.13,-7.42 -3.67,-11.03 C 48.857,100.853 47.107,95.673 46,90.92 44.247,83.427 42.323,76.957 40.23,71.51 c -0.807,-2.093 -0.9,-4.81 -0.28,-8.15 0.32,-1.7 -0.45,-3.18 -0.17,-4.72 0.65,-3.55 0.19,-7.17 1.2,-10.61 0.513,-1.747 1.01,-3.533 1.49,-5.36 0.16,-0.592 -0.19,-1.201 -0.782,-1.361 -0.142,-0.039 -0.291,-0.049 -0.438,-0.029 -1.59,0.22 -3.07,1.29 -3.97,2.6 -1.033,1.527 -2.767,2.553 -5.2,3.08 C 20.5,49.43 12.2,50.67 2.31,48.91 1.713,48.802 1.313,48.233 1.417,47.64 1.456,47.42 1.562,47.217 1.72,47.06 c 2.01,-2.04 8.36,-2.35 11.13,-2.29 7.133,0.153 13.87,0.113 20.21,-0.12 4.58,-0.16 3.56,-4.27 6.02,-6.47 4.473,-4 7.46,-9.677 8.96,-17.03 C 49.02,16.37 42.72,6.74 39.69,2.55 39.419,2.18 39.499,1.661 39.868,1.39 40,1.293 40.157,1.238 40.32,1.23 47.153,0.87 52.457,-1.54 56.23,-6 c 1.04,-1.23 2.36,-2.32 3.72,-3.08 7.807,-4.313 16.213,-7.123 25.22,-8.43 5.37,-0.78 10.37,-6.93 14.02,-10.94 0.21,-0.234 0.191,-0.595 -0.044,-0.805 -0.111,-0.1 -0.257,-0.152 -0.406,-0.145 -8.12,0.42 -16.273,0.6 -24.46,0.54 -51.19,-0.38 -104.55,1.14 -155.02,2.39 -4.333,0.107 -8.67,0.26 -13.01,0.46 -4.207,0.187 -7.09,2.273 -8.65,6.26 -3.953,10.127 -2.273,18.527 5.04,25.2 2.62,2.393 6.197,5.05 10.73,7.97 13.707,8.827 26.313,15.957 37.82,21.39 2.033,0.96 4.21,1.787 6.53,2.48 4.92,1.47 9.91,1.36 14.68,3.2 4.813,1.86 9.717,3.673 14.71,5.44 1.251,0.439 2.042,1.676 1.92,3 -0.58,6.1 -0.63,11.73 -2.09,17.85 -3.433,14.387 -6.543,28.863 -9.33,43.43 -0.147,0.773 -0.257,1.543 -0.33,2.31 -0.061,0.532 -0.542,0.914 -1.074,0.853 -0.043,-0.005 -0.085,-0.013 -0.126,-0.023 -6.02,-1.513 -12.14,-1.063 -18.36,1.35 -7.193,2.793 -13.593,6.743 -19.2,11.85 -0.34,0.307 -0.733,0.417 -1.18,0.33 -1.247,-0.253 -2.243,-0.947 -2.99,-2.08 -0.733,-1.117 -2.218,-1.453 -3.36,-0.76 l -2.05,1.25 c -0.823,0.498 -1.88,0.37 -2.56,-0.31 -3.08,-3.06 -7.48,-2.68 -10.77,-0.06 -0.72,0.573 -1.503,0.997 -2.35,1.27 -0.287,0.093 -0.577,0.1 -0.87,0.02 -4.787,-1.287 -9.707,-1.303 -14.76,-0.05 -2.65,0.66 -6.07,3.2 -8.8,2.52 -9.45,-2.37 -23.51,1.91 -32.65,5.36 -10.367,3.907 -20.003,8.103 -28.91,12.59 -1.207,0.607 -2.433,0.597 -3.68,-0.03 -3.773,-1.88 -7.84,-3.033 -12.2,-3.46 -3.27,-0.33 -6.16,0.47 -9.13,1.84 -0.651,0.303 -1.422,0.139 -1.89,-0.4 -1.953,-2.253 -4.267,-2.603 -6.94,-1.05 -1.507,0.873 -3.143,1.23 -4.91,1.07 -14.673,-1.327 -28.977,0.8 -42.91,6.38 -1.233,0.5 -2.5,0.833 -3.8,1 -14.54,1.88 -27.77,7.41 -41.03,13.88 -0.131,0.063 -0.286,0.059 -0.42,-0.01 -0.28,-0.147 -0.403,-0.307 -0.37,-0.48 0.027,-0.147 0.093,-0.273 0.2,-0.38 1.627,-1.633 3.483,-3.143 5.57,-4.53 3.56,-2.367 7.277,-4.737 11.15,-7.11 0.04,-0.02 0.05,-0.05 0.03,-0.09 l -0.24,-0.53 c -0.053,-0.1 -0.133,-0.133 -0.24,-0.1 -9.3,3.3 -18.897,7.323 -28.79,12.07 -9.99,4.8 -18.27,13.05 -24.19,21.62 -0.593,0.867 -0.867,1.843 -0.82,2.93 0.016,0.346 0.304,0.616 0.65,0.61 2.553,-0.013 4.977,-0.54 7.27,-1.58 13.953,-6.333 27.757,-11.283 41.41,-14.85 19.713,-5.147 39.867,-9.097 60.46,-11.85 11.887,-1.587 23.297,-3.013 34.23,-4.28 0.88,-0.1 1.757,-0.063 2.63,0.11"
       style="fill:#231f20;fill-opacity:1;fill-rule:nonzero;stroke:none"
       transform="matrix(1.3333333,0,0,-1.3333333,1432.7667,313.40227)"
       clip-path="url(#clipPath4)" />
    <path
       id="path5"
       d="M 0,0 C 2.5,1.007 4.79,2.103 6.87,3.29 7.483,3.644 8.266,3.429 8.619,2.811 8.757,2.568 8.814,2.287 8.78,2.01 7.66,-6.85 -1.27,-12.58 -9.45,-14.54 c -6.953,-1.667 -15.72,-2.143 -26.3,-1.43 -1.05,0.07 -1.53,0.77 -1.9,1.66 -0.2,0.493 -0.043,0.807 0.47,0.94 2.98,0.767 5.827,1.623 8.54,2.57 C -19.533,-7.64 -9.987,-4.04 0,0"
       style="fill:#231f20;fill-opacity:1;fill-rule:nonzero;stroke:none"
       transform="matrix(1.3333333,0,0,-1.3333333,734.9,97.762267)"
       clip-path="url(#clipPath6)" />
    <path
       id="path7"
       d="m 0,0 c 0.091,-0.024 0.158,-0.103 0.17,-0.2 0.14,-1.507 -0.573,-2.31 -2.14,-2.41 -8.627,-0.533 -16.27,-0.277 -22.93,0.77 -8.65,1.35 -17,5.92 -20.53,14.15 -0.473,1.113 -0.65,2.26 -0.53,3.44 0.071,0.709 0.703,1.226 1.412,1.155 0.194,-0.019 0.382,-0.083 0.548,-0.185 2.24,-1.373 4.447,-2.49 6.62,-3.35 7.887,-3.113 15.517,-6.04 22.89,-8.78 C -9.35,2.677 -4.52,1.147 0,0"
       style="fill:#231f20;fill-opacity:1;fill-rule:nonzero;stroke:none"
       transform="matrix(1.3333333,0,0,-1.3333333,1054.4068,115.6156)"
       clip-path="url(#clipPath8)" />
    <path
       id="path9"
       d="m 0,0 c 0.129,0.265 0.349,0.477 0.62,0.6 6.79,2.96 10.83,9.13 15,14.91 1.42,1.96 3.36,3.67 5.38,5.04 1.98,1.34 1.78,2.087 -0.6,2.24 -2.227,0.14 -4.523,0.243 -6.89,0.31 C 2.73,23.39 -4.13,17.45 -10.5,9.2 c -1.63,-2.1 -3.62,-3.87 -5.8,-5.32 -0.52,-0.349 -1.21,-0.304 -1.68,0.11 -9.35,8.14 -21.69,16.53 -34.13,15.42 -0.54,-0.047 -1.01,-0.25 -1.41,-0.61 -0.296,-0.273 -0.315,-0.735 -0.042,-1.032 0.055,-0.059 0.12,-0.11 0.192,-0.148 3.64,-1.973 6.56,-4.613 8.76,-7.92 1.45,-2.17 3.23,-4.02 5.09,-5.8 0.523,-0.508 0.535,-1.344 0.027,-1.867 -0.085,-0.087 -0.182,-0.162 -0.287,-0.223 -1.453,-0.833 -2.733,-1.837 -3.84,-3.01 -0.513,-0.541 -0.49,-1.396 0.052,-1.908 0.17,-0.162 0.38,-0.276 0.608,-0.332 1.707,-0.407 3.33,-1.01 4.87,-1.81 6.1,-3.17 12.19,-6.83 18.77,-8.43 2.107,-0.513 3.96,-0.657 5.56,-0.43 6.87,0.96 11.8,6.13 18.83,6.69 3.893,0.313 4.137,1.423 0.73,3.33 C 4.14,-3.163 2.28,-2.233 0.22,-1.3 -0.24,-1.093 -0.313,-0.66 0,0 M -16.16,34.93 C -4.4,43.65 11.34,47.31 24.29,40.15 43.54,29.53 46.23,3.95 30.11,-10.72 25.07,-15.3 19.66,-19.65 14.04,-23.66 5.867,-29.48 -1.947,-34.987 -9.4,-40.18 c -2.333,-1.62 -4.85,-3.2 -7.55,-4.74 -0.293,-0.167 -0.587,-0.167 -0.88,0 -4.08,2.253 -8.207,4.957 -12.38,8.11 -10.407,7.86 -20.963,15.78 -31.67,23.76 -7.09,5.28 -12.37,12.72 -13.05,21.61 -1.62,21.46 17.61,39.32 38.52,35.28 6.38,-1.24 12.98,-5.54 18.53,-8.98 0.538,-0.332 1.22,-0.304 1.72,0.07"
       style="fill:#231f20;fill-opacity:1;fill-rule:nonzero;stroke:none"
       transform="matrix(1.3333333,0,0,-1.3333333,891.56667,153.84227)"
       clip-path="url(#clipPath10)" />
    <path
       id="path11"
       d="M 0,0 C 0.74,-3.333 2.517,-6.847 5.33,-10.54 5.761,-11.1 5.657,-11.904 5.096,-12.335 4.885,-12.498 4.627,-12.591 4.36,-12.6 1.47,-12.71 -5.62,-4.55 -7.48,-2.25 -8.133,-1.437 -7.973,-0.84 -7,-0.46 -5.167,0.26 -3.37,0.773 -1.61,1.08 -0.73,1.233 -0.193,0.873 0,0"
       style="fill:#231f20;fill-opacity:1;fill-rule:nonzero;stroke:none"
       transform="matrix(1.3333333,0,0,-1.3333333,676.82,113.50893)"
       clip-path="url(#clipPath12)" />
    <path
       id="path13"
       d="m 0,0 c 2.5,3.44 4.37,6.86 5.63,10.79 0.353,1.093 1.077,1.46 2.17,1.1 l 4.38,-1.46 c 1.207,-0.4 1.407,-1.093 0.6,-2.08 C 10.52,5.58 4.35,-1.72 0.8,-1.62 0.237,-1.606 -0.209,-1.139 -0.195,-0.576 -0.19,-0.368 -0.122,-0.168 0,0"
       style="fill:#231f20;fill-opacity:1;fill-rule:nonzero;stroke:none"
       transform="matrix(1.3333333,0,0,-1.3333333,1055.5267,127.92227)"
       clip-path="url(#clipPath14)" />
    <path
       id="path15"
       d="m 0,0 c -7.15,4.59 -10.89,11.46 -14.48,19.53 -0.627,1.393 -0.243,2.403 1.15,3.03 l 0.67,0.3 c 1.44,0.64 2.53,0.267 3.27,-1.12 C -6.397,16.1 -3.267,9.553 0,2.1 0.267,1.5 0.427,0.897 0.48,0.29 0.52,-0.137 0.36,-0.233 0,0"
       style="fill:#231f20;fill-opacity:1;fill-rule:nonzero;stroke:none"
       transform="matrix(1.3333333,0,0,-1.3333333,675.98,147.92227)"
       clip-path="url(#clipPath16)" />
    <path
       id="path17"
       d="m 0,0 c -2.74,-6.83 -7.31,-15.81 -14.15,-19.48 -1.193,-0.64 -1.503,-0.347 -0.93,0.88 l 9.44,20 c 0.833,1.76 2.15,2.273 3.95,1.54 L -1.16,2.73 C 0.14,2.203 0.527,1.293 0,0"
       style="fill:#231f20;fill-opacity:1;fill-rule:nonzero;stroke:none"
       transform="matrix(1.3333333,0,0,-1.3333333,1082.98,121.4556)"
       clip-path="url(#clipPath18)" />
    <path
       id="path19"
       d="m 0,0 c -7.62,3.56 -13.27,13.9 -15.94,21.44 -1.16,3.28 -2.427,6.587 -3.8,9.92 -0.293,0.698 0.041,1.502 0.744,1.795 0.076,0.032 0.155,0.057 0.236,0.075 l 7.76,1.69 c 1.513,0.333 2.48,-0.247 2.9,-1.74 L 1.03,0.88 C 1.148,0.489 0.926,0.076 0.535,-0.042 0.358,-0.095 0.167,-0.08 0,0"
       style="fill:#231f20;fill-opacity:1;fill-rule:nonzero;stroke:none"
       transform="matrix(1.3333333,0,0,-1.3333333,663.91333,166.6556)"
       clip-path="url(#clipPath20)" />
    <path
       id="path21"
       d="m 0,0 c 1.36,3.913 2.603,8.203 3.73,12.87 1.507,6.26 3.293,12.323 5.36,18.19 0.282,0.8 1.077,1.296 1.91,1.19 3.347,-0.4 6.41,-1.093 9.19,-2.08 0.34,-0.124 0.518,-0.494 0.4,-0.83 C 16.94,18.98 11.01,1.07 -0.19,-2.88 -0.388,-2.952 -0.605,-2.846 -0.676,-2.643 -0.7,-2.575 -0.705,-2.501 -0.69,-2.43 -0.51,-1.603 -0.28,-0.793 0,0"
       style="fill:#231f20;fill-opacity:1;fill-rule:nonzero;stroke:none"
       transform="matrix(1.3333333,0,0,-1.3333333,1074.8467,163.06893)"
       clip-path="url(#clipPath22)" />
    <path
       id="path23"
       d="m 0,0 c 9.427,0.073 19.793,0.587 31.1,1.54 0.654,0.061 1.234,-0.424 1.295,-1.084 0.004,-0.045 0.006,-0.091 0.005,-0.136 -0.05,-2.39 -5.58,-6.69 -7.39,-8.05 -3.09,-2.33 -7.64,-1.4 -11.23,-0.34 -5.593,1.653 -11.043,3.69 -16.35,6.11 -0.88,0.4 -1.32,0.983 -1.32,1.75 0,0.413 0.207,0.603 0.62,0.57 C -2.14,0.27 -1.16,-0.01 0,0"
       style="fill:#231f20;fill-opacity:1;fill-rule:nonzero;stroke:none"
       transform="matrix(1.3333333,0,0,-1.3333333,698.1668,124.94893)"
       clip-path="url(#clipPath24)" />
    <path
       id="path25"
       d="M 0,0 C 1.147,-0.007 2.33,0.14 3.55,0.44 3.839,0.517 4.133,0.341 4.208,0.047 4.238,-0.072 4.228,-0.197 4.18,-0.31 c -0.4,-0.907 -1.067,-1.573 -2,-2 -5.373,-2.46 -10.593,-4.42 -15.66,-5.88 -3.72,-1.07 -8.15,-1.86 -11.41,0.64 -2.767,2.12 -5.057,4.353 -6.87,6.7 -0.497,0.635 -0.382,1.554 0.258,2.053 0.124,0.097 0.264,0.174 0.412,0.227 0.513,0.18 1.043,0.243 1.59,0.19 C -18.827,0.567 -8.993,0.027 0,0"
       style="fill:#231f20;fill-opacity:1;fill-rule:nonzero;stroke:none"
       transform="matrix(1.3333333,0,0,-1.3333333,1040.8067,124.94893)"
       clip-path="url(#clipPath26)" />
    <path
       id="path27"
       d="m 0,0 c 1.487,1.58 2.947,2.933 4.38,4.06 0.36,0.278 0.828,0.377 1.27,0.27 2.88,-0.7 5.81,-2.27 6.36,-5.65 1.447,-8.8 2.333,-17.86 2.66,-27.18 0.29,-8.26 -0.6,-16.83 -1.35,-25.13 -0.047,-0.513 -0.297,-0.647 -0.75,-0.4 -1.1,0.607 -1.867,1.577 -2.3,2.91 C 5.36,-36.1 2.23,-19.35 -1.02,-3.34 -1.273,-2.1 -0.933,-0.987 0,0"
       style="fill:#231f20;fill-opacity:1;fill-rule:nonzero;stroke:none"
       transform="matrix(1.3333333,0,0,-1.3333333,532.52667,129.2156)"
       clip-path="url(#clipPath28)" />
    <path
       id="path29"
       d="M 0,0 C 0.93,6.1 0.9,9.8 7.11,11.22 7.818,11.383 8.562,11.189 9.1,10.7 10.77,9.19 14.39,6.35 13.93,3.91 10.89,-12.22 7.78,-28.53 2.72,-44 2.327,-45.2 1.653,-46.18 0.7,-46.94 0.432,-47.153 0.042,-47.109 -0.171,-46.841 -0.24,-46.754 -0.285,-46.65 -0.3,-46.54 -2.447,-31.06 -2.347,-15.547 0,0"
       style="fill:#231f20;fill-opacity:1;fill-rule:nonzero;stroke:none"
       transform="matrix(1.3333333,0,0,-1.3333333,1189.86,138.46893)"
       clip-path="url(#clipPath30)" />
    <path
       id="path31"
       d="m 0,0 c -2.37,1.85 -3.21,3.73 -4.69,6.1 -4.55,7.3 -8.3,15.65 -9.67,24.08 -0.09,0.588 0.283,1.147 0.86,1.29 l 7.25,1.79 c 0.647,0.16 1.037,-0.087 1.17,-0.74 C -2.987,22.5 -1.207,12.89 0.26,3.69 0.453,2.47 0.517,1.307 0.45,0.2 0.43,-0.153 0.28,-0.22 0,0"
       style="fill:#231f20;fill-opacity:1;fill-rule:nonzero;stroke:none"
       transform="matrix(1.3333333,0,0,-1.3333333,641.16667,169.24227)"
       clip-path="url(#clipPath32)" />
    <path
       id="path33"
       d="m 0,0 c 1.49,10.09 3.26,20.19 5.53,30.09 0.253,1.073 0.917,1.487 1.99,1.24 l 5.78,-1.36 c 1.14,-0.267 1.623,-0.98 1.45,-2.14 C 13.42,18.75 8.94,10.14 3.92,2.1 3.233,1 2.457,0.03 1.59,-0.81 0.263,-2.103 -0.267,-1.833 0,0"
       style="fill:#231f20;fill-opacity:1;fill-rule:nonzero;stroke:none"
       transform="matrix(1.3333333,0,0,-1.3333333,1097.7,166.90893)"
       clip-path="url(#clipPath34)" />
    <path
       id="path35"
       d="m 0,0 c 0.816,0.171 1.617,-0.352 1.788,-1.168 0,-0.004 10e-4,-0.008 0.002,-0.012 L 1.8,-1.25 C 6.006,-21.559 7.559,-38.411 5.27,-38.9 l -0.2,-0.04 C 2.777,-39.411 -2.493,-23.326 -6.7,-3.01 l -0.01,0.07 c -0.172,0.816 0.35,1.617 1.166,1.789 10e-4,0 0.003,0.001 0.004,0.001 z"
       style="fill:#231f20;fill-opacity:1;fill-rule:nonzero;stroke:none"
       transform="matrix(1.3333333,0,0,-1.3333333,614.40667,127.32227)"
       clip-path="url(#clipPath36)" />
    <path
       id="path37"
       d="m 0,0 c 0.83,-0.175 1.363,-0.989 1.19,-1.82 l -0.04,-0.2 c -4.253,-20.179 -9.557,-36.145 -11.848,-35.66 -10e-4,0 -10e-4,0 -0.002,0 l -0.12,0.02 c -2.292,0.481 -0.702,17.23 3.55,37.409 0,0 0,0.001 0,0.001 l 0.04,0.2 c 0.174,0.832 0.991,1.366 1.823,1.191 L -5.4,1.14 Z"
       style="fill:#231f20;fill-opacity:1;fill-rule:nonzero;stroke:none"
       transform="matrix(1.3333333,0,0,-1.3333333,1132.6067,128.96227)"
       clip-path="url(#clipPath38)" />
    <path
       id="path39"
       d="m 0,0 c -1.473,1.6 -2.453,3.533 -2.94,5.8 -2.4,11.2 -4.58,21.977 -6.54,32.33 -0.078,0.412 0.189,0.81 0.596,0.887 0.038,0.007 0.076,0.012 0.114,0.013 L -2,39.28 c 0.54,0.02 0.85,-0.237 0.93,-0.77 C 0.7,26.24 2.4,13.04 1.19,1.26 1.15,0.847 1.037,0.463 0.85,0.11 0.719,-0.146 0.406,-0.247 0.15,-0.116 0.093,-0.087 0.043,-0.047 0,0"
       style="fill:#231f20;fill-opacity:1;fill-rule:nonzero;stroke:none"
       transform="matrix(1.3333333,0,0,-1.3333333,602.11333,181.0556)"
       clip-path="url(#clipPath40)" />
    <path
       id="path41"
       d="M 0,0 C 0.142,-0.02 0.241,-0.152 0.221,-0.294 0.221,-0.296 0.22,-0.298 0.22,-0.3 L 0.2,-0.44 c -3.194,-21.891 -7.568,-39.374 -9.77,-39.05 l -0.08,0.01 c -2.196,0.349 -1.391,18.347 1.8,40.22 l 0.02,0.14 c 0.021,0.14 0.15,0.238 0.29,0.22 z"
       style="fill:#231f20;fill-opacity:1;fill-rule:nonzero;stroke:none"
       transform="matrix(1.3333333,0,0,-1.3333333,1149.6601,128.76227)"
       clip-path="url(#clipPath42)" />
    <path
       id="path43"
       d="M 0,0 C 1.069,0.129 2.04,-0.632 2.17,-1.7 L 3.51,-12.97 C 5.249,-27.554 4.882,-39.592 2.69,-39.86 L 2.37,-39.9 c -2.194,-0.256 -5.381,11.356 -7.12,25.94 l -1.34,11.27 c -0.129,1.069 0.632,2.04 1.7,2.17 z"
       style="fill:#231f20;fill-opacity:1;fill-rule:nonzero;stroke:none"
       transform="matrix(1.3333333,0,0,-1.3333333,581.79333,128.70893)"
       clip-path="url(#clipPath44)" />
    <path
       id="path45"
       d="M 0,0 C 1.057,-0.125 1.813,-1.083 1.69,-2.14 L 0.11,-15.39 c -1.606,-13.463 -4.69,-24.164 -6.889,-23.9 0,0 0,0 -0.001,0 l -0.16,0.02 c -2.195,0.279 -2.674,11.4 -1.07,24.85 l 1.58,13.25 c 0.125,1.057 1.083,1.813 2.14,1.69 z"
       style="fill:#231f20;fill-opacity:1;fill-rule:nonzero;stroke:none"
       transform="matrix(1.3333333,0,0,-1.3333333,1163.6867,129.4556)"
       clip-path="url(#clipPath46)" />
    <path
       id="path47"
       d="m 0,0 c 3.56,-0.21 6.31,-0.91 10.01,-0.19 0.498,0.102 0.984,-0.223 1.087,-0.727 0.005,-0.027 0.01,-0.055 0.013,-0.083 1.027,-9.093 1.397,-17.817 1.11,-26.17 -0.153,-4.64 -0.853,-9.137 -2.1,-13.49 -0.119,-0.425 -0.565,-0.672 -0.995,-0.551 -0.022,0.006 -0.044,0.013 -0.065,0.021 -1.033,0.4 -1.707,1.1 -2.02,2.1 -1.227,3.94 -2.213,7.933 -2.96,11.98 C 2.513,-18.657 0.93,-9.873 -0.67,-0.76 -0.77,-0.22 -0.547,0.033 0,0"
       style="fill:#231f20;fill-opacity:1;fill-rule:nonzero;stroke:none"
       transform="matrix(1.3333333,0,0,-1.3333333,553.98,129.42893)"
       clip-path="url(#clipPath48)" />
    <path
       id="path49"
       d="m 0,0 c -1.94,-12.57 -4.15,-24.6 -6.73,-35.92 -0.367,-1.613 -1.02,-2.947 -1.96,-4 -0.443,-0.501 -1.209,-0.544 -1.712,-0.096 -0.178,0.159 -0.306,0.366 -0.368,0.596 -1.373,5.167 -2.03,11.07 -1.97,17.71 0.073,7.307 0.337,14.257 0.79,20.85 0.045,0.728 0.675,1.281 1.409,1.235 0.02,-0.001 0.041,-0.003 0.061,-0.005 3.273,-0.347 6.483,-0.2 9.63,0.44 0.383,0.083 0.761,-0.161 0.844,-0.545 C 0.012,0.178 0.015,0.088 0,0"
       style="fill:#231f20;fill-opacity:1;fill-rule:nonzero;stroke:none"
       transform="matrix(1.3333333,0,0,-1.3333333,1186.3268,130.44227)"
       clip-path="url(#clipPath50)" />
    <path
       id="path51"
       d="m 0,0 c 12.193,-4.887 24.717,-9.483 37.57,-13.79 1.107,-0.367 2.147,-0.893 3.12,-1.58 0.63,-0.441 0.839,-1.284 0.49,-1.98 -0.52,-1.033 -1.293,-1.843 -2.32,-2.43 -4.373,-2.527 -8.973,-2.877 -13.8,-1.05 -7.66,2.9 -14.12,8.1 -20.27,13.49 -2.06,1.81 -4.47,3.38 -5.88,5.8 -0.367,0.62 -0.253,1.11 0.34,1.47 C -0.523,0.068 -0.246,0.094 0,0"
       style="fill:#231f20;fill-opacity:1;fill-rule:nonzero;stroke:none"
       transform="matrix(1.3333333,0,0,-1.3333333,690.27333,131.5756)"
       clip-path="url(#clipPath52)" />
    <path
       id="path53"
       d="m 0,0 c -7.46,-6.63 -21.01,-18.78 -31.53,-16.53 -2.92,0.62 -5.293,1.843 -7.12,3.67 -0.657,0.643 -0.675,1.695 -0.04,2.36 0.733,0.767 1.603,1.32 2.61,1.66 C -21.333,-3.873 -9.147,0.59 0.48,4.55 1.353,4.91 2.273,5.037 3.24,4.93 3.646,4.885 3.94,4.52 3.895,4.114 3.878,3.96 3.813,3.815 3.71,3.7 2.557,2.407 1.32,1.173 0,0"
       style="fill:#231f20;fill-opacity:1;fill-rule:nonzero;stroke:none"
       transform="matrix(1.3333333,0,0,-1.3333333,1046.2468,138.52227)"
       clip-path="url(#clipPath54)" />
    <path
       id="path55"
       d="m 0,0 c 3.35,-17.47 5.19,-35.99 2.36,-53.38 -0.12,-0.753 -0.347,-1.493 -0.68,-2.22 -0.137,-0.296 -0.488,-0.424 -0.783,-0.288 -0.075,0.035 -0.143,0.086 -0.197,0.148 -1.173,1.373 -2.003,3.037 -2.49,4.99 -0.967,3.933 -1.76,7.733 -2.38,11.4 -1.847,10.96 -3.613,22.637 -5.3,35.03 -0.054,0.391 0.137,0.773 0.48,0.96 l 7.41,4.1 C -0.713,1.22 -0.187,0.973 0,0"
       style="fill:#231f20;fill-opacity:1;fill-rule:nonzero;stroke:none"
       transform="matrix(1.3333333,0,0,-1.3333333,525.38,133.6956)"
       clip-path="url(#clipPath56)" />
    <path
       id="path57"
       d="m 0,0 7.02,-3.82 c 0.767,-0.413 1.11,-1.057 1.03,-1.93 -0.2,-1.99 -0.86,-3.91 -1.09,-5.87 -1.34,-11.593 -3.237,-23.593 -5.69,-36 -0.653,-3.287 -1.633,-6.07 -2.94,-8.35 -0.313,-0.547 -0.757,-0.697 -1.33,-0.45 -0.354,0.155 -0.604,0.484 -0.66,0.87 -1.07,7.75 -1.82,15.31 -1.37,23.21 0.41,7.31 0.65,14.61 1.95,21.78 0.607,3.333 1.083,6.567 1.43,9.7 C -1.523,0.24 -0.973,0.527 0,0"
       style="fill:#231f20;fill-opacity:1;fill-rule:nonzero;stroke:none"
       transform="matrix(1.3333333,0,0,-1.3333333,1216.1535,132.72227)"
       clip-path="url(#clipPath58)" />
    <path
       id="path59"
       d="m 0,0 c -1.173,1.647 -2.267,3.31 -3.28,4.99 -0.327,0.533 -0.48,0.86 -0.46,0.98 0.18,1 0.69,1.207 1.53,0.62 7.27,-5.03 40.67,-28.58 36.86,-38.61 -0.429,-1.137 -1.698,-1.711 -2.835,-1.282 -0.018,0.007 -0.037,0.015 -0.055,0.022 -2.547,1.04 -4.863,2.527 -6.95,4.46 C 16.343,-20.987 8.073,-11.38 0,0"
       style="fill:#231f20;fill-opacity:1;fill-rule:nonzero;stroke:none"
       transform="matrix(1.3333333,0,0,-1.3333333,682.86,146.46893)"
       clip-path="url(#clipPath60)" />
    <path
       id="path61"
       d="m 0,0 c -7.04,-9.927 -14.44,-18.767 -22.2,-26.52 -2.64,-2.63 -7.67,-7.33 -11.17,-7.34 -0.4,-0.007 -0.697,0.17 -0.89,0.53 -1.313,2.393 -1.217,4.767 0.29,7.12 3.62,5.667 8.73,11.287 15.33,16.86 6.193,5.233 13.08,10.443 20.66,15.63 0.287,0.2 0.6,0.277 0.94,0.23 C 3.283,6.47 3.513,6.176 3.473,5.852 3.465,5.782 3.443,5.713 3.41,5.65 2.403,3.663 1.267,1.78 0,0"
       style="fill:#231f20;fill-opacity:1;fill-rule:nonzero;stroke:none"
       transform="matrix(1.3333333,0,0,-1.3333333,1057.02,146.08227)"
       clip-path="url(#clipPath62)" />
    <path
       id="path63"
       d="m 0,0 c -0.69,2.3 -1.36,4.44 -1.71,6.78 -2.25,15.26 -2.55,28.59 -3.13,43.37 -0.027,0.687 0.257,1.207 0.85,1.56 l 4.61,2.72 C 1.207,54.777 1.553,54.613 1.66,53.94 2.993,45.513 3.967,37 4.58,28.4 5.227,19.26 4.923,11.123 3.67,3.99 3.397,2.417 2.737,0.977 1.69,-0.33 1.356,-0.749 0.743,-0.814 0.323,-0.474 0.171,-0.351 0.058,-0.186 0,0"
       style="fill:#231f20;fill-opacity:1;fill-rule:nonzero;stroke:none"
       transform="matrix(1.3333333,0,0,-1.3333333,504.48667,212.18893)"
       clip-path="url(#clipPath64)" />
    <path
       id="path65"
       d="M 0,0 5.32,-3.31 C 5.555,-3.458 5.695,-3.719 5.69,-4 5.35,-20.12 4.85,-36.92 1.58,-52.18 c -0.22,-1.04 -0.637,-2.007 -1.25,-2.9 -0.267,-0.393 -0.802,-0.494 -1.195,-0.227 -0.115,0.079 -0.209,0.184 -0.275,0.307 -2.34,4.42 -2.86,11.36 -2.89,16.1 -0.053,8.907 0.363,16.84 1.25,23.8 0.607,4.707 1.277,9.623 2.01,14.75 0.038,0.274 0.294,0.463 0.573,0.422 C -0.127,0.061 -0.06,0.037 0,0"
       style="fill:#231f20;fill-opacity:1;fill-rule:nonzero;stroke:none"
       transform="matrix(1.3333333,0,0,-1.3333333,1234.0067,139.3756)"
       clip-path="url(#clipPath66)" />
    <path
       id="path67"
       d="m 0,0 c 3.16,0.733 6.303,1.837 9.43,3.31 0.425,0.199 0.931,0.021 1.13,-0.399 0.053,-0.113 0.081,-0.236 0.08,-0.361 0.013,-18.153 -1.36,-35.977 -4.12,-53.47 -0.28,-1.8 -0.83,-3.43 -1.65,-4.89 -0.513,-0.927 -1.053,-0.943 -1.62,-0.05 -0.393,0.627 -0.637,1.29 -0.73,1.99 -0.9,6.77 -1.82,13.38 -2.09,20.16 -0.427,10.867 -0.773,21.033 -1.04,30.5 -0.027,0.84 -0.003,1.697 0.07,2.57 0.025,0.309 0.242,0.567 0.54,0.64"
       style="fill:#231f20;fill-opacity:1;fill-rule:nonzero;stroke:none"
       transform="matrix(1.3333333,0,0,-1.3333333,478.74,149.28227)"
       clip-path="url(#clipPath68)" />
    <path
       id="path69"
       d="m 0,0 9.91,-3.58 c 0.416,-0.154 0.681,-0.562 0.65,-1 C 10.213,-9.92 10.013,-15.2 9.96,-20.42 9.867,-30.507 9.247,-40.94 8.1,-51.72 7.84,-54.147 7.383,-56.427 6.73,-58.56 6.157,-60.447 5.44,-60.5 4.58,-58.72 c -0.633,1.313 -1.067,2.723 -1.3,4.23 -2.66,17.413 -4.06,35.36 -4.2,53.84 -0.008,0.375 0.291,0.686 0.666,0.694 C -0.167,0.045 -0.081,0.031 0,0"
       style="fill:#231f20;fill-opacity:1;fill-rule:nonzero;stroke:none"
       transform="matrix(1.3333333,0,0,-1.3333333,1247.78,144.8156)"
       clip-path="url(#clipPath70)" />
    <path
       id="path71"
       d="m 0,0 c 11.39,-11.74 21.96,-23.44 33.72,-35.29 0.64,-0.64 0.667,-1.307 0.08,-2 -3.18,-3.75 -9.71,-2.56 -13.44,-0.33 -2.28,1.373 -4.203,2.94 -5.77,4.7 C 5.95,-23.2 1,-12.42 -3.72,-0.47 -4.073,0.423 -4.207,1.343 -4.12,2.29 -4.102,2.516 -3.904,2.684 -3.679,2.666 -3.623,2.662 -3.569,2.646 -3.52,2.62 -2.18,1.913 -1.007,1.04 0,0"
       style="fill:#231f20;fill-opacity:1;fill-rule:nonzero;stroke:none"
       transform="matrix(1.3333333,0,0,-1.3333333,671.54,151.42893)"
       clip-path="url(#clipPath72)" />
    <path
       id="path73"
       d="m 0,0 c 8.687,9.227 17.787,18.903 27.3,29.03 1.293,1.373 2.737,2.38 4.33,3.02 0.21,0.085 0.449,-0.017 0.533,-0.227 0.026,-0.065 0.035,-0.134 0.027,-0.203 -0.133,-0.98 -0.393,-1.96 -0.78,-2.94 -4.42,-11.25 -17.53,-42.87 -34.21,-38.71 -1.367,0.34 -2.447,0.993 -3.24,1.96 -0.576,0.686 -0.501,1.708 0.17,2.31 1.973,1.78 3.93,3.7 5.87,5.76"
       style="fill:#231f20;fill-opacity:1;fill-rule:nonzero;stroke:none"
       transform="matrix(1.3333333,0,0,-1.3333333,1031.06,190.50893)"
       clip-path="url(#clipPath74)" />
    <path
       id="path75"
       d="m 0,0 c 1.078,-0.193 1.798,-1.221 1.61,-2.3 l -1.85,-10.53 c -3.857,-21.874 -8.835,-39.281 -11.12,-38.88 l -0.26,0.04 c -2.282,0.412 -1.006,18.47 2.85,40.34 l 1.85,10.53 c 0.193,1.082 1.226,1.803 2.308,1.61 0.001,0 0.001,0 0.002,0 z"
       style="fill:#231f20;fill-opacity:1;fill-rule:nonzero;stroke:none"
       transform="matrix(1.3333333,0,0,-1.3333333,452.44667,150.84227)"
       clip-path="url(#clipPath76)" />
    <path
       id="path77"
       d="M 0,0 7.25,-0.41 C 7.683,-0.43 7.913,-0.66 7.94,-1.1 8.593,-12.307 8.443,-22.677 7.49,-32.21 6.803,-39.13 4.883,-45.103 1.73,-50.13 c -0.363,-0.567 -1.116,-0.736 -1.681,-0.378 -0.219,0.139 -0.387,0.345 -0.479,0.588 -0.44,1.153 -0.777,2.38 -1.01,3.68 -2.74,15.147 -2.483,30.39 0.77,45.73 C -0.59,-0.143 -0.367,0.027 0,0"
       style="fill:#231f20;fill-opacity:1;fill-rule:nonzero;stroke:none"
       transform="matrix(1.3333333,0,0,-1.3333333,460.42,150.30893)"
       clip-path="url(#clipPath78)" />
    <path
       id="path79"
       d="m 0,0 c 2.9,-14.747 3.247,-28.94 1.04,-42.58 -0.38,-2.353 -0.94,-4.497 -1.68,-6.43 -0.174,-0.454 -0.683,-0.681 -1.137,-0.507 -0.127,0.049 -0.241,0.127 -0.333,0.227 -4.03,4.37 -5.7,12.85 -6.27,18.55 -1.007,10.093 -1.113,20.367 -0.32,30.82 0.036,0.445 0.399,0.791 0.84,0.8 l 6.51,0.19 C -0.695,1.092 -0.123,0.638 0,0"
       style="fill:#231f20;fill-opacity:1;fill-rule:nonzero;stroke:none"
       transform="matrix(1.3333333,0,0,-1.3333333,1280.3268,151.8556)"
       clip-path="url(#clipPath80)" />
    <path
       id="path81"
       d="m 0,0 c 1.066,0.188 2.082,-0.524 2.27,-1.59 l 1.92,-10.89 c 3.827,-21.701 5.112,-39.614 2.871,-40.01 0,0 -0.001,0 -0.001,0 l -0.31,-0.06 c -2.237,-0.415 -7.155,16.841 -10.983,38.542 -0.003,0.013 -0.005,0.025 -0.007,0.038 l -1.92,10.89 c -0.193,1.065 0.514,2.085 1.579,2.278 0.004,0.001 0.007,0.001 0.011,0.002 z"
       style="fill:#231f20;fill-opacity:1;fill-rule:nonzero;stroke:none"
       transform="matrix(1.3333333,0,0,-1.3333333,1293.2468,149.80227)"
       clip-path="url(#clipPath82)" />
    <path
       id="path83"
       d="m 0,0 c 0.061,0.591 -0.345,1.128 -0.93,1.23 -2.44,0.44 -5.97,-1.97 -8.27,-2.84 -0.193,-0.073 -0.353,-0.033 -0.48,0.12 -0.073,0.08 -0.113,0.167 -0.12,0.26 -0.007,0.107 0.033,0.19 0.12,0.25 C -4.333,2.513 1.23,5.94 7.01,9.3 8.117,9.94 9.473,10 11.08,9.48 11.427,9.367 11.573,9.13 11.52,8.77 11.36,7.77 11,6.81 10.44,5.89 8.26,2.323 6.05,-1.243 3.81,-4.81 3.08,-5.97 1.92,-6.76 0.56,-6.98 c -0.562,-0.086 -1.088,0.3 -1.174,0.862 -0.014,0.089 -0.016,0.179 -0.006,0.268 z"
       style="fill:#231f20;fill-opacity:1;fill-rule:nonzero;stroke:none"
       transform="matrix(1.3333333,0,0,-1.3333333,381.58,163.86893)"
       clip-path="url(#clipPath84)" />
    <path
       id="path85"
       d="M 0,0 C 0.373,1.48 0.743,3.007 1.11,4.58 1.273,5.268 1.838,5.79 2.54,5.9 5.82,6.393 9.083,7.14 12.33,8.14 12.693,8.256 13.081,8.055 13.197,7.692 13.235,7.572 13.24,7.443 13.21,7.32 10.67,-3.447 6.82,-13.57 1.66,-23.05 c -1.573,-2.887 -3.397,-5.52 -5.47,-7.9 -0.359,-0.413 -0.984,-0.456 -1.397,-0.097 -0.156,0.135 -0.265,0.316 -0.313,0.517 -0.16,0.693 -0.17,1.483 -0.03,2.37 C -3.923,-17.567 -2.073,-8.18 0,0"
       style="fill:#231f20;fill-opacity:1;fill-rule:nonzero;stroke:none"
       transform="matrix(1.3333333,0,0,-1.3333333,421.20667,161.62893)"
       clip-path="url(#clipPath86)" />
    <path
       id="path87"
       d="m 0,0 c 3.34,-1.14 6.707,-1.89 10.1,-2.25 0.564,-0.061 1.031,-0.464 1.17,-1.01 2.673,-10.467 4.85,-21.153 6.53,-32.06 0.1,-0.673 0.163,-1.333 0.19,-1.98 0.087,-2.62 -0.717,-2.93 -2.41,-0.93 -1.1,1.31 -2.39,2.73 -3.23,4.21 -5.88,10.333 -10.293,21.403 -13.24,33.21 -0.094,0.364 0.13,0.734 0.499,0.826 C -0.262,0.048 -0.126,0.042 0,0"
       style="fill:#231f20;fill-opacity:1;fill-rule:nonzero;stroke:none"
       transform="matrix(1.3333333,0,0,-1.3333333,1301.8067,150.78893)"
       clip-path="url(#clipPath88)" />
    <path
       id="path89"
       d="m 0,0 c -0.85,-0.023 -1.521,-0.726 -1.499,-1.571 0.001,-0.043 0.004,-0.086 0.009,-0.129 l 0.64,-5.58 c 0.107,-0.933 -0.3,-1.317 -1.22,-1.15 -0.9,0.16 -1.97,0.8 -2.49,1.56 -2.8,4.053 -5.47,8.29 -8.01,12.71 -0.66,1.147 -0.363,1.937 0.89,2.37 1.67,0.57 3.32,-0.16 4.74,-1.06 C -2.227,4.183 2.607,1.21 7.56,-1.77 9.627,-3.01 9.503,-3.29 7.19,-2.61 4.99,-1.96 2.26,0.04 0,0"
       style="fill:#231f20;fill-opacity:1;fill-rule:nonzero;stroke:none"
       transform="matrix(1.3333333,0,0,-1.3333333,1359.8335,162.0556)"
       clip-path="url(#clipPath90)" />
    <path
       id="path91"
       d="m 0,0 c 3.6,-1.07 5.47,0.03 8.83,0.67 0.585,0.11 1.149,-0.275 1.26,-0.86 0.88,-4.833 2.69,-9.647 5.43,-14.44 0.393,-0.687 0.52,-1.41 0.38,-2.17 -0.133,-0.711 -0.818,-1.179 -1.529,-1.046 -0.217,0.041 -0.42,0.136 -0.591,0.276 C 7.827,-12.697 2.777,-7.497 -1.37,-1.97 -2.903,0.07 -2.447,0.727 0,0"
       style="fill:#231f20;fill-opacity:1;fill-rule:nonzero;stroke:none"
       transform="matrix(1.3333333,0,0,-1.3333333,1324.3268,154.56227)"
       clip-path="url(#clipPath92)" />
    <path
       id="path93"
       d="m 0,0 c 3.61,-0.85 6.54,-1.65 10.27,-0.26 0.294,0.111 0.623,-0.037 0.735,-0.332 0.047,-0.125 0.049,-0.262 0.005,-0.388 -0.67,-1.9 -1.79,-2.99 -3.03,-4.47 -3.847,-4.553 -7.973,-8.7 -12.38,-12.44 -0.553,-0.467 -1.097,-0.627 -1.63,-0.48 -0.66,0.18 -1.063,0.613 -1.21,1.3 -0.064,0.321 -0.007,0.656 0.16,0.94 2.8,4.747 4.757,9.867 5.87,15.36 0.112,0.541 0.641,0.888 1.182,0.776 C -0.019,0.004 -0.009,0.002 0,0"
       style="fill:#231f20;fill-opacity:1;fill-rule:nonzero;stroke:none"
       transform="matrix(1.3333333,0,0,-1.3333333,403.38,153.7756)"
       clip-path="url(#clipPath94)" />
    <path
       id="path95"
       d="m 0,0 c -0.613,1.813 -1.233,3.673 -1.86,5.58 -0.52,1.587 -0.05,1.98 1.41,1.18 0.26,-0.14 0.793,-0.607 1.6,-1.4 10.73,-10.55 21.57,-21.69 29.58,-33.89 0.927,-1.407 1.663,-2.923 2.21,-4.55 0.262,-0.78 -0.157,-1.625 -0.937,-1.887 C 31.889,-35.006 31.77,-35.03 31.65,-35.04 14.72,-36.51 4.34,-12.76 0,0"
       style="fill:#231f20;fill-opacity:1;fill-rule:nonzero;stroke:none"
       transform="matrix(1.3333333,0,0,-1.3333333,649.06,168.84227)"
       clip-path="url(#clipPath96)" />
    <path
       id="path97"
       d="m 0,0 c 8.94,12.5 19.25,24.05 30.74,34.55 1.873,1.713 2.443,1.357 1.71,-1.07 C 30.07,25.613 27.16,18.45 23.72,11.99 18.92,2.96 9.7,-8.31 -1.27,-6.71 c -0.706,0.098 -1.197,0.755 -1.097,1.465 0.008,0.059 0.021,0.118 0.037,0.175 0.567,2 1.343,3.69 2.33,5.07"
       style="fill:#231f20;fill-opacity:1;fill-rule:nonzero;stroke:none"
       transform="matrix(1.3333333,0,0,-1.3333333,1049.5801,206.4956)"
       clip-path="url(#clipPath98)" />
    <path
       id="path99"
       d="m 0,0 c 7.98,10.89 15.8,22.01 24.24,32.26 0.272,0.327 0.758,0.371 1.084,0.099 0.14,-0.117 0.235,-0.28 0.266,-0.459 0.153,-0.893 0.1,-1.763 -0.16,-2.61 C 22.283,19.063 18.19,9.333 13.15,0.1 c -3.1,-5.69 -9.88,-15.61 -16.7,-16.92 -2.567,-0.493 -4.97,-0.2 -7.21,0.88 -0.566,0.274 -0.83,0.936 -0.61,1.53 0.68,1.853 1.663,3.427 2.95,4.72 3.353,3.373 6.16,6.603 8.42,9.69"
       style="fill:#231f20;fill-opacity:1;fill-rule:nonzero;stroke:none"
       transform="matrix(1.3333333,0,0,-1.3333333,1078.14,206.2556)"
       clip-path="url(#clipPath100)" />
    <path
       id="path101"
       d="M 0,0 C 1.78,-1.81 5.01,-5.2 5.56,-7.75 5.727,-8.53 5.44,-9.07 4.7,-9.37 c -4.173,-1.7 -7.987,-1.267 -11.44,1.3 -4.287,3.193 -8.32,8.183 -12.1,14.97 -5.073,9.113 -9.17,18.91 -12.29,29.39 -0.187,0.62 -0.22,1.243 -0.1,1.87 0.103,0.531 0.617,0.879 1.148,0.776 0.236,-0.046 0.446,-0.176 0.592,-0.366 C -20.85,27.163 -12.68,16.233 -4.98,5.78 -3.593,3.893 -1.933,1.967 0,0"
       style="fill:#231f20;fill-opacity:1;fill-rule:nonzero;stroke:none"
       transform="matrix(1.3333333,0,0,-1.3333333,668.99333,215.1356)"
       clip-path="url(#clipPath102)" />
    <path
       id="path103"
       d="m 0,0 c -0.72,3.2 3.08,3.31 5.04,3.56 2.54,0.33 5.03,1.54 7.18,2.01 3.22,0.707 3.59,-0.027 1.11,-2.2 C 10.54,0.93 5.75,-2.29 1.63,-1.43 0.717,-1.243 0.173,-0.767 0,0"
       style="fill:#231f20;fill-opacity:1;fill-rule:nonzero;stroke:none"
       transform="matrix(1.3333333,0,0,-1.3333333,341.28667,175.2556)"
       clip-path="url(#clipPath104)" />
    <path
       id="path105"
       d="m 0,0 12.78,-3.25 c 0.42,-0.109 0.716,-0.486 0.72,-0.92 l 0.03,-2.23 c 0.011,-0.53 -0.409,-0.969 -0.939,-0.981 -0.02,0 -0.041,0 -0.061,0.001 L 7.16,-7.15 C 6.977,-7.143 6.8,-7.084 6.65,-6.98 l -7.44,5.26 c -0.438,0.299 -0.55,0.896 -0.251,1.334 C -0.811,-0.049 -0.394,0.106 0,0"
       style="fill:#231f20;fill-opacity:1;fill-rule:nonzero;stroke:none"
       transform="matrix(1.3333333,0,0,-1.3333333,1380.0333,167.44227)"
       clip-path="url(#clipPath106)" />
    <path
       id="path107"
       d="m 0,0 c -4.02,3.95 -8.52,8.86 -10.78,13.99 -0.72,1.633 -0.33,1.967 1.17,1 C -3.59,11.13 2.837,7.32 9.67,3.56 11.23,2.7 12.467,1.577 13.38,0.19 13.716,-0.323 13.808,-0.957 13.63,-1.54 13.277,-2.667 12.627,-3.233 11.68,-3.24 11.16,-3.247 10.643,-3.29 10.13,-3.37 6.27,-3.97 2.893,-2.847 0,0"
       style="fill:#231f20;fill-opacity:1;fill-rule:nonzero;stroke:none"
       transform="matrix(1.3333333,0,0,-1.3333333,1377.8067,189.92227)"
       clip-path="url(#clipPath108)" />
    <path
       id="path109"
       d="m 0,0 c -0.227,-1.133 -0.697,-2.223 -1.41,-3.27 -3.27,-4.82 -7.17,-10.14 -11.89,-13.33 -3.07,-2.08 -7.08,-2.14 -10.35,-0.57 -0.858,0.42 -1.216,1.452 -0.799,2.306 0.024,0.049 0.05,0.097 0.079,0.144 0.973,1.593 2.287,2.833 3.94,3.72 6.027,3.247 11.98,6.78 17.86,10.6 0.647,0.42 1.353,0.703 2.12,0.85 C -0.245,0.493 -0.043,0.362 0,0.156 0.011,0.105 0.011,0.051 0,0"
       style="fill:#231f20;fill-opacity:1;fill-rule:nonzero;stroke:none"
       transform="matrix(1.3333333,0,0,-1.3333333,376.23333,170.3756)"
       clip-path="url(#clipPath110)" />
    <path
       id="path111"
       d="m 0,0 c -17.46,-3.57 -29.43,36.69 -32.73,48.57 -0.089,0.331 -0.031,0.685 0.16,0.97 0.593,0.887 1.253,0.793 1.98,-0.28 C -20.997,35.253 -11.467,21.203 -2,7.11 -0.747,5.237 0.22,3.41 0.9,1.63 1.14,1 0.823,0.296 0.194,0.056 0.131,0.032 0.066,0.013 0,0"
       style="fill:#231f20;fill-opacity:1;fill-rule:nonzero;stroke:none"
       transform="matrix(1.3333333,0,0,-1.3333333,653.12667,238.30893)"
       clip-path="url(#clipPath112)" />
    <path
       id="path113"
       d="M 0,0 C 0.387,0.627 0.883,1.05 1.49,1.27 1.983,1.447 2.528,1.195 2.707,0.707 2.773,0.525 2.782,0.327 2.73,0.14 c -3.24,-12.16 -14.65,-51.13 -32.09,-49.09 -0.916,0.104 -1.578,0.927 -1.49,1.85 0.08,0.84 0.35,1.613 0.81,2.32 7.127,11.02 14.877,22.457 23.25,34.31 C -4.45,-7.14 -2.14,-3.46 0,0"
       style="fill:#231f20;fill-opacity:1;fill-rule:nonzero;stroke:none"
       transform="matrix(1.3333333,0,0,-1.3333333,1126.42,173.34893)"
       clip-path="url(#clipPath114)" />
    <path
       id="path115"
       d="m 0,0 c 0.387,-0.447 0.41,-0.913 0.07,-1.4 -4.627,-6.653 -9.19,-13.157 -13.69,-19.51 -1.89,-2.67 -5.59,-6.08 -9.12,-5.91 -1.037,0.054 -1.834,0.938 -1.78,1.975 v 0.005 c 0.173,3.32 1.79,6.343 4.85,9.07 5.727,5.087 11.787,10.377 18.18,15.87 C -0.957,0.56 -0.46,0.527 0,0"
       style="fill:#231f20;fill-opacity:1;fill-rule:nonzero;stroke:none"
       transform="matrix(1.3333333,0,0,-1.3333333,390.64667,174.1756)"
       clip-path="url(#clipPath116)" />
    <path
       id="path117"
       d="M 0,0 C -0.234,0.335 -0.151,0.797 0.184,1.03 0.27,1.09 0.367,1.131 0.47,1.15 L 1.32,1.3 C 1.9,1.405 2.488,1.195 2.86,0.75 c 0.95,-1.14 1.79,-2.16 2.95,-3.12 4.327,-3.56 8.42,-7.153 12.28,-10.78 3.16,-2.96 7.51,-6.23 6.57,-11.15 -0.117,-0.625 -0.642,-1.093 -1.28,-1.14 -3.78,-0.29 -7.86,3.22 -9.87,6.12 C 9.05,-12.9 4.547,-6.46 0,0"
       style="fill:#231f20;fill-opacity:1;fill-rule:nonzero;stroke:none"
       transform="matrix(1.3333333,0,0,-1.3333333,1348.6067,175.7756)"
       clip-path="url(#clipPath118)" />
    <path
       id="path119"
       d="m 0,0 c -7.84,4.36 -14.02,11.64 -18.14,19.65 -5.347,10.42 -9.037,21.84 -11.07,34.26 -0.133,0.787 -0.053,1.533 0.24,2.24 0.237,0.59 0.91,0.871 1.502,0.629 0.259,-0.106 0.471,-0.301 0.598,-0.549 6.4,-12.54 14.69,-23.44 22.81,-35.41 2.187,-3.233 3.617,-6.05 4.29,-8.45 C 1.343,8.423 1.947,4.61 2.04,0.93 2.058,0.413 1.707,-0.047 1.2,-0.17 0.793,-0.27 0.393,-0.213 0,0"
       style="fill:#231f20;fill-opacity:1;fill-rule:nonzero;stroke:none"
       transform="matrix(1.3333333,0,0,-1.3333333,630.87333,254.1756)"
       clip-path="url(#clipPath120)" />
    <path
       id="path121"
       d="m 0,0 c -2.78,-3.48 -8.21,-8.94 -12.68,-9.92 -0.486,-0.105 -0.965,0.204 -1.07,0.689 -0.015,0.07 -0.022,0.14 -0.02,0.211 0.067,3.34 0.7,7.18 1.9,11.52 0.66,2.4 1.923,4.973 3.79,7.72 5.107,7.513 9.897,14.53 14.37,21.05 3.333,4.867 6.087,9.51 8.26,13.93 1.38,2.8 2.52,2.743 3.42,-0.17 0.073,-0.253 -0.033,-1.02 -0.32,-2.3 C 14.17,27.23 9.58,12 0,0"
       style="fill:#231f20;fill-opacity:1;fill-rule:nonzero;stroke:none"
       transform="matrix(1.3333333,0,0,-1.3333333,1124.14,241.22893)"
       clip-path="url(#clipPath122)" />
    <path
       id="path123"
       d="M 0,0 C -0.48,2.75 -2,6.37 -0.29,8.93 -0.11,9.202 0.256,9.276 0.528,9.096 0.565,9.071 0.599,9.042 0.63,9.01 1.763,7.837 2.68,6.517 3.38,5.05 c 8.18,-17.167 15.93,-32.613 23.25,-46.34 1.99,-3.73 3.79,-9.45 2.69,-13.66 -0.274,-1.03 -1.327,-1.646 -2.352,-1.375 -0.171,0.046 -0.336,0.114 -0.488,0.205 -5.69,3.37 -9.68,9.01 -12.74,14.81 C 7.207,-28.91 2.627,-15.14 0,0"
       style="fill:#231f20;fill-opacity:1;fill-rule:nonzero;stroke:none"
       transform="matrix(1.3333333,0,0,-1.3333333,575.23333,191.4956)"
       clip-path="url(#clipPath124)" />
    <path
       id="path125"
       d="m 0,0 c -2.27,-3.44 -5.67,-7.02 -9.45,-8.81 -0.783,-0.373 -1.72,-0.04 -2.092,0.743 -0.053,0.111 -0.092,0.227 -0.118,0.347 -0.99,4.6 0.13,9.25 2.33,13.41 7.807,14.8 15.547,30.243 23.22,46.33 0.76,1.593 1.75,3.05 2.97,4.37 0.265,0.289 0.712,0.312 0.999,0.051 0.074,-0.067 0.132,-0.149 0.171,-0.241 0.413,-0.94 0.557,-1.92 0.43,-2.94 C 17.467,45.4 15.503,36.697 12.57,27.15 9.457,17.03 5.267,7.98 0,0"
       style="fill:#231f20;fill-opacity:1;fill-rule:nonzero;stroke:none"
       transform="matrix(1.3333333,0,0,-1.3333333,1140.9533,254.82893)"
       clip-path="url(#clipPath126)" />
    <path
       id="path127"
       d="m 0,0 c 4.4,5.31 9.27,10.67 13.66,16.15 0.813,1.02 1.69,1.793 2.63,2.32 1.86,1.06 2.323,0.627 1.39,-1.3 -4.37,-9 -8.25,-18.22 -12.26,-27.6 -1.26,-2.947 -3.7,-4.427 -7.32,-4.44 -0.833,0 -1.32,0.41 -1.46,1.23 C -4.23,-8.68 -3.47,-4.19 0,0"
       style="fill:#231f20;fill-opacity:1;fill-rule:nonzero;stroke:none"
       transform="matrix(1.3333333,0,0,-1.3333333,375.84667,206.54893)"
       clip-path="url(#clipPath128)" />
    <path
       id="path129"
       d="m 0,0 c 5.52,-5.47 10.33,-11.69 15.43,-17.52 3.63,-4.16 4.92,-7.73 4.79,-12.99 -0.067,-2.487 -1.383,-3.547 -3.95,-3.18 -4.01,0.58 -5.06,4.15 -6.39,7.24 -3.68,8.573 -7.47,17.133 -11.37,25.68 -0.156,0.349 -0.016,0.758 0.32,0.93 C -0.723,0.387 -0.333,0.333 0,0"
       style="fill:#231f20;fill-opacity:1;fill-rule:nonzero;stroke:none"
       transform="matrix(1.3333333,0,0,-1.3333333,1341.78,181.44227)"
       clip-path="url(#clipPath130)" />
    <path
       id="path131"
       d="m 0,0 c 6.16,-16.65 13.75,-33.35 20.19,-50.32 0.727,-1.92 1.18,-3.857 1.36,-5.81 0.08,-0.8 -0.283,-1.203 -1.09,-1.21 -12.2,-0.15 -17.9,18.59 -20.19,27.84 -3.35,13.54 -4.75,26.8 -6.63,40.38 -0.056,0.416 0.236,0.799 0.652,0.854 0.117,0.016 0.236,0.004 0.348,-0.034 0.78,-0.267 1.323,-0.817 1.63,-1.65 C -2.463,6.637 -1.22,3.287 0,0"
       style="fill:#231f20;fill-opacity:1;fill-rule:nonzero;stroke:none"
       transform="matrix(1.3333333,0,0,-1.3333333,565.24667,197.38893)"
       clip-path="url(#clipPath132)" />
    <path
       id="path133"
       d="m 0,0 c 3.54,8.48 6.81,17.41 9.97,26.22 0.253,0.707 0.73,1.2 1.43,1.48 0.395,0.157 0.843,-0.037 0.999,-0.432 0.045,-0.114 0.063,-0.236 0.051,-0.358 C 11.23,13.277 9.263,0.533 6.55,-11.32 4.38,-20.77 1.02,-31.66 -6.43,-38.44 c -2.3,-2.09 -5.28,-2.76 -8.29,-2.66 -0.408,0.013 -0.728,0.36 -0.714,0.774 10e-4,0.019 0.002,0.037 0.004,0.056 0.2,1.83 0.64,3.81 1.31,5.51 C -9.607,-23.313 -4.9,-11.727 0,0"
       style="fill:#231f20;fill-opacity:1;fill-rule:nonzero;stroke:none"
       transform="matrix(1.3333333,0,0,-1.3333333,1165.9267,218.9356)"
       clip-path="url(#clipPath134)" />
    <path
       id="path135"
       d="m 0,0 c -1.267,-9.333 -2.933,-18.383 -5,-27.15 -0.82,-3.46 -1.97,-6.76 -3.45,-9.9 -0.433,-0.913 -1.063,-1.083 -1.89,-0.51 -4.45,3.09 -7.15,9.95 -4.5,14.93 4.733,8.873 8.937,17.85 12.61,26.93 0.393,0.967 1.107,1.423 2.14,1.37 C 0.263,5.654 0.536,5.355 0.521,5.002 0.52,4.998 0.52,4.994 0.52,4.99 0.413,3.423 0.24,1.76 0,0"
       style="fill:#231f20;fill-opacity:1;fill-rule:nonzero;stroke:none"
       transform="matrix(1.3333333,0,0,-1.3333333,409.74,190.52227)"
       clip-path="url(#clipPath136)" />
    <path
       id="path137"
       d="m 0,0 c 3.66,-9.12 7.71,-17.58 12.72,-26.88 2.5,-4.62 -0.7,-11.1 -4.26,-14.23 -0.688,-0.606 -1.739,-0.537 -2.348,0.156 -0.077,0.087 -0.145,0.182 -0.202,0.284 -0.873,1.56 -1.557,3.213 -2.05,4.96 -2.387,8.527 -4.163,17.253 -5.33,26.18 -0.47,3.56 -1.37,7.05 -1.64,10.63 -0.037,0.49 0.331,0.917 0.821,0.954 C -2.135,2.065 -1.98,2.037 -1.84,1.97 -0.973,1.55 -0.36,0.893 0,0"
       style="fill:#231f20;fill-opacity:1;fill-rule:nonzero;stroke:none"
       transform="matrix(1.3333333,0,0,-1.3333333,1333.0735,185.44227)"
       clip-path="url(#clipPath138)" />
    <path
       id="path139"
       d="m 0,0 c -2.83,-7.88 -8.54,-17.02 -16.24,-20.47 -0.424,-0.189 -0.92,10e-4 -1.11,0.424 -0.039,0.088 -0.062,0.181 -0.07,0.276 -0.63,8.03 -0.64,15.82 2.41,23.43 6.22,15.5 12.36,30.753 18.42,45.76 0.213,0.539 0.827,0.802 1.371,0.586 C 4.822,49.99 4.862,49.971 4.9,49.95 5.553,49.597 5.947,49.023 6.08,48.23 6.78,44.06 6.43,40.09 6.37,35.89 6.177,23.25 4.053,11.287 0,0"
       style="fill:#231f20;fill-opacity:1;fill-rule:nonzero;stroke:none"
       transform="matrix(1.3333333,0,0,-1.3333333,1196.0867,258.9756)"
       clip-path="url(#clipPath140)" />
    <path
       id="path141"
       d="m 0,0 c -18.08,12.78 -21.07,45.65 -20.12,66.09 0.047,1.073 0.287,1.923 0.72,2.55 0.395,0.573 1.18,0.717 1.753,0.322 0.199,-0.137 0.354,-0.329 0.447,-0.552 C -9.893,50.83 -3.243,34.22 2.75,18.58 4.49,14.03 3.98,4.93 3.69,-0.4 3.67,-0.864 3.274,-1.222 2.805,-1.201 2.753,-1.199 2.701,-1.192 2.65,-1.18 1.677,-0.953 0.793,-0.56 0,0"
       style="fill:#231f20;fill-opacity:1;fill-rule:nonzero;stroke:none"
       transform="matrix(1.3333333,0,0,-1.3333333,561.84667,284.5756)"
       clip-path="url(#clipPath142)" />
    <path
       id="path143"
       d="m 0,0 c -2.66,2.12 -4.7,5.7 -6.48,8.77 -0.58,0.987 -0.687,2.017 -0.32,3.09 3.033,8.907 6.767,19.23 11.2,30.97 0.933,2.467 2.197,4.403 3.79,5.81 0.203,0.188 0.52,0.171 0.708,-0.038 C 8.989,48.5 9.037,48.366 9.03,48.23 8.27,35.517 7.68,22.413 7.26,8.92 7.193,6.653 6.97,4.983 6.59,3.91 5.73,1.46 2.94,-2.34 0,0"
       style="fill:#231f20;fill-opacity:1;fill-rule:nonzero;stroke:none"
       transform="matrix(1.3333333,0,0,-1.3333333,417.98,260.6556)"
       clip-path="url(#clipPath144)" />
    <path
       id="path145"
       d="m 0,0 c -0.4,13.44 -0.87,27.38 -1.94,41.16 -0.107,1.407 0.353,1.627 1.38,0.66 2.34,-2.23 3.22,-5.19 4.4,-8.26 C 7.553,23.92 10.963,14.403 14.07,5.01 14.287,4.364 14.233,3.657 13.92,3.05 12.33,-0.08 10.21,-3.54 7.61,-6.01 3.71,-9.73 0.08,-2.88 0,0"
       style="fill:#231f20;fill-opacity:1;fill-rule:nonzero;stroke:none"
       transform="matrix(1.3333333,0,0,-1.3333333,1312.0867,252.2556)"
       clip-path="url(#clipPath146)" />
    <path
       id="path147"
       d="m 0,0 c 0.773,-1.193 1.34,-2.43 1.7,-3.71 5.167,-18.407 10.483,-36.517 15.95,-54.33 1.04,-3.37 1.8,-6.86 2.42,-10.37 0.224,-1.259 -0.538,-2.487 -1.77,-2.85 -1.113,-0.327 -2.21,-0.37 -3.29,-0.13 -11.57,2.62 -14.15,12.07 -16.23,22.47 -2.693,13.473 -3.633,26.383 -2.82,38.73 0.247,3.693 1.247,7.08 3,10.16 0.168,0.292 0.54,0.393 0.833,0.226 C -0.124,0.148 -0.053,0.081 0,0"
       style="fill:#231f20;fill-opacity:1;fill-rule:nonzero;stroke:none"
       transform="matrix(1.3333333,0,0,-1.3333333,518.16667,201.5356)"
       clip-path="url(#clipPath148)" />
    <path
       id="path149"
       d="M 0,0 C 0.407,1.427 0.877,2.763 1.41,4.01 1.586,4.43 2.024,4.68 2.48,4.62 3.02,4.547 3.387,4.25 3.58,3.73 5.12,-0.33 6.04,-4.13 6.23,-8.41 6.82,-22.07 5.15,-37.21 1.57,-51.28 c -1.133,-4.427 -2.82,-7.817 -5.06,-10.17 -2.92,-3.06 -8.92,-6.61 -13.3,-5.11 -0.413,0.14 -0.713,0.407 -0.9,0.8 -1.13,2.41 1.21,9.73 1.96,12.16 C -10.457,-36.293 -5.213,-18.427 0,0"
       style="fill:#231f20;fill-opacity:1;fill-rule:nonzero;stroke:none"
       transform="matrix(1.3333333,0,0,-1.3333333,1218.8201,207.64227)"
       clip-path="url(#clipPath150)" />
    <path
       id="path151"
       d="m 0,0 c -2.8,2.31 -4.77,5.36 -6.78,8.43 -2.793,4.26 -4.22,8.723 -4.28,13.39 -0.21,16.22 1.51,31.84 2.89,48.02 0.107,1.267 0.423,2.457 0.95,3.57 0.166,0.355 0.588,0.509 0.944,0.343 0.115,-0.054 0.214,-0.138 0.286,-0.243 0.393,-0.56 0.66,-1.163 0.8,-1.81 1.83,-8.13 2.94,-16.37 4.25,-24.45 C 0.573,37.897 1.787,28.13 2.7,17.95 3.147,12.917 3.29,8.103 3.13,3.51 3.09,2.31 2.743,1.24 2.09,0.3 1.637,-0.354 0.744,-0.52 0.094,-0.071 0.062,-0.049 0.03,-0.025 0,0"
       style="fill:#231f20;fill-opacity:1;fill-rule:nonzero;stroke:none"
       transform="matrix(1.3333333,0,0,-1.3333333,504.99333,300.4956)"
       clip-path="url(#clipPath152)" />
    <path
       id="path153"
       d="M 0,0 C 0.28,1.5 0.603,2.91 0.97,4.23 1.129,4.806 1.726,5.14 2.305,4.977 2.545,4.909 2.755,4.762 2.9,4.56 3.207,4.127 3.387,3.637 3.44,3.09 4.88,-10.937 5.933,-23.953 6.6,-35.96 c 0.28,-5.033 0.173,-9.807 -0.32,-14.32 -0.61,-5.63 -4.06,-10.7 -7.51,-15.14 -1.067,-1.367 -2.293,-2.5 -3.68,-3.4 -0.578,-0.367 -1.342,-0.2 -1.706,0.374 -0.001,0.002 -0.003,0.004 -0.004,0.006 -0.66,1.033 -1.017,2.22 -1.07,3.56 -0.147,3.44 -0.073,6.92 0.22,10.44 C -6.03,-37.48 -3.54,-19.333 0,0"
       style="fill:#231f20;fill-opacity:1;fill-rule:nonzero;stroke:none"
       transform="matrix(1.3333333,0,0,-1.3333333,1240.5001,208.86893)"
       clip-path="url(#clipPath154)" />
    <path
       id="path155"
       d="m 0,0 c 0.14,-1.647 0.037,-3.1 -0.31,-4.36 -0.54,-1.933 -1.483,-3.923 -2.83,-5.97 -1.667,-2.533 -3.58,-2.877 -5.74,-1.03 -3.49,2.99 -4.32,11.58 -4.43,15.82 -0.393,14.887 1.353,29.7 5.24,44.44 0.3,1.147 0.86,2.157 1.68,3.03 0.301,0.323 0.807,0.342 1.131,0.041 0.138,-0.129 0.227,-0.303 0.249,-0.491 0.98,-7.9 1.45,-15.8 2.32,-23.72 C -1.71,18.873 -0.813,9.62 0,0"
       style="fill:#231f20;fill-opacity:1;fill-rule:nonzero;stroke:none"
       transform="matrix(1.3333333,0,0,-1.3333333,481.5,275.3356)"
       clip-path="url(#clipPath156)" />
    <path
       id="path157"
       d="m 0,0 c 3.92,-12.87 5.56,-26.88 5.73,-40.04 0.07,-5.9 -0.11,-13.93 -2.87,-19.13 -4.16,-7.81 -8.89,0.16 -10,4.29 -0.5,1.847 -0.607,4.18 -0.32,7 0.76,7.36 1.22,14.63 2.11,22.08 1.04,8.693 1.893,17.713 2.56,27.06 0.037,0.523 0.491,0.918 1.014,0.881 C -1.575,2.127 -1.384,2.05 -1.23,1.92 -0.657,1.44 -0.247,0.8 0,0"
       style="fill:#231f20;fill-opacity:1;fill-rule:nonzero;stroke:none"
       transform="matrix(1.3333333,0,0,-1.3333333,1268.26,208.7356)"
       clip-path="url(#clipPath158)" />
    <path
       id="path159"
       d="m 0,0 c 0.15,15.8 0.64,31.67 0.64,48.06 0,2.153 0.647,2.37 1.94,0.65 0.653,-0.873 1.153,-1.927 1.5,-3.16 1.32,-4.727 2.663,-9.17 4.03,-13.33 2.287,-7 3.68,-14.293 4.18,-21.88 C 12.57,6.127 11.86,2.093 10.16,-1.76 8.613,-5.267 6.173,-6.177 2.84,-4.49 0.927,-3.523 -0.02,-2.027 0,0"
       style="fill:#231f20;fill-opacity:1;fill-rule:nonzero;stroke:none"
       transform="matrix(1.3333333,0,0,-1.3333333,1286.2067,273.14893)"
       clip-path="url(#clipPath160)" />
    <path
       id="path161"
       d="m 0,0 c -9.49,11.69 0.24,35.98 3.9,48.69 0.547,1.893 1.07,3.227 1.57,4 1.333,2.053 2.027,1.85 2.08,-0.61 C 7.903,36.187 8.12,20.02 8.2,3.58 8.207,2.26 7.683,1.25 6.63,0.55 4.85,-0.63 1.72,-2.11 0,0"
       style="fill:#231f20;fill-opacity:1;fill-rule:nonzero;stroke:none"
       transform="matrix(1.3333333,0,0,-1.3333333,442.22,278.9356)"
       clip-path="url(#clipPath162)" />
    <path
       id="path163"
       d="m 0,0 c 0,6.059 -4.911,10.97 -10.97,10.97 v 0 c -6.059,0 -10.97,-4.911 -10.97,-10.97 0,-6.059 4.911,-10.97 10.97,-10.97 C -4.911,-10.97 0,-6.059 0,0 Z m 16.42,0.01 c 0,-15.111 -12.249,-27.36 -27.36,-27.36 -15.111,0 -27.36,12.249 -27.36,27.36 0,15.11 12.249,27.36 27.36,27.36 15.111,0 27.36,-12.25 27.36,-27.36"
       style="fill:#231f20;fill-opacity:1;fill-rule:nonzero;stroke:none"
       transform="matrix(1.3333333,0,0,-1.3333333,948.22,306.12227)"
       clip-path="url(#clipPath164)" />
    <path
       id="path165"
       d="m 0,0 c 0.727,-1.047 1.697,-1.99 2.91,-2.83 7.63,-5.26 13.05,-13.81 10.07,-23.15 -4.31,-13.51 -20.48,-11.71 -31.3,-9.66 -0.593,0.111 -1.021,0.632 -1.02,1.24 l -0.02,13.61 c -0.001,0.723 0.585,1.311 1.308,1.312 0.183,0 0.364,-0.038 0.532,-0.112 3.24,-1.413 6.977,-1.9 11.21,-1.46 0.853,0.087 1.397,0.533 1.63,1.34 0.42,1.45 -0.37,2.77 -1.48,3.64 -5.97,4.65 -12.23,9.24 -13.19,17.16 -1.05,8.79 5.11,15.32 13.61,16.31 3.92,0.453 8.363,0.257 13.33,-0.59 0.567,-0.1 0.83,-0.433 0.79,-1 C 8.113,11.677 8.12,7.387 8.4,2.94 8.42,2.565 8.137,2.244 7.767,2.223 7.721,2.221 7.675,2.223 7.63,2.23 5.53,2.523 3.38,2.593 1.18,2.44 0.32,2.382 -0.329,1.638 -0.271,0.778 -0.252,0.499 -0.158,0.23 0,0"
       style="fill:#231f20;fill-opacity:1;fill-rule:nonzero;stroke:none"
       transform="matrix(1.3333333,0,0,-1.3333333,999.80667,293.20227)"
       clip-path="url(#clipPath166)" />
    <path
       id="path167"
       d="M 0,0 C -0.226,-0.57 0.052,-1.215 0.621,-1.442 0.755,-1.494 0.897,-1.521 1.04,-1.52 l 4.53,0.04 c 0.613,0.004 1.107,0.504 1.103,1.117 C 6.672,-0.221 6.644,-0.081 6.59,0.05 L 4.28,5.65 C 4.046,6.217 3.397,6.486 2.83,6.252 2.551,6.137 2.33,5.912 2.22,5.63 Z m 11.47,-13.71 c -0.45,0.626 -1.184,0.989 -1.96,0.97 -4.027,-0.1 -7.977,-0.11 -11.85,-0.03 -2.87,0.06 -2.75,-1.78 -3.63,-3.76 -0.12,-0.273 -0.317,-0.473 -0.59,-0.6 -0.613,-0.273 -1.267,-0.413 -1.96,-0.42 -4.54,-0.007 -8.94,-0.04 -13.2,-0.1 -0.448,-0.007 -0.815,0.353 -0.82,0.806 -0.001,0.126 0.026,0.25 0.08,0.364 1.113,2.367 2.13,4.8 3.05,7.3 5.26,14.293 10.58,28.533 15.96,42.72 0.287,0.76 0.837,1.14 1.65,1.14 L 8.35,34.7 c 0.71,10e-4 1.347,-0.437 1.6,-1.1 5.667,-14.78 11.177,-29.383 16.53,-43.81 0.813,-2.193 1.713,-4.257 2.7,-6.19 0.193,-0.385 0.038,-0.854 -0.347,-1.047 -0.106,-0.054 -0.224,-0.082 -0.343,-0.083 -4.7,0 -9.303,0.023 -13.81,0.07 -2.58,0.02 -2.11,2.24 -3.21,3.75"
       style="fill:#231f20;fill-opacity:1;fill-rule:nonzero;stroke:none"
       transform="matrix(1.3333333,0,0,-1.3333333,751.79333,317.48227)"
       clip-path="url(#clipPath168)" />
    <path
       id="path169"
       d="m 0,0 -0.45,17.22 c -0.027,0.8 0.363,1.203 1.17,1.21 l 14.82,0.04 c 0.276,0 0.5,-0.224 0.5,-0.5 l -0.09,-50.63 c -0.005,-0.624 -0.516,-1.126 -1.14,-1.12 v 0 l -11.89,0.09 c -0.395,0.006 -0.763,0.199 -0.99,0.52 l -11.61,16.32 c -1.833,2.58 -2.657,2.29 -2.47,-0.87 0.287,-4.867 0.347,-9.97 0.18,-15.31 -0.011,-0.379 -0.321,-0.68 -0.7,-0.68 l -14.83,-0.01 c -0.469,0 -0.85,0.381 -0.85,0.85 v 0 l -0.09,50.9 c 0,0.276 0.224,0.5 0.5,0.5 l 11.61,-0.07 c 1.097,-0.006 2.123,-0.543 2.75,-1.44 3.62,-5.167 7.203,-10.273 10.75,-15.32 0.573,-0.813 1.283,-1.507 2.13,-2.08 0.207,-0.138 0.486,-0.083 0.624,0.124 C -0.025,-0.18 0.001,-0.091 0,0"
       style="fill:#231f20;fill-opacity:1;fill-rule:nonzero;stroke:none"
       transform="matrix(1.3333333,0,0,-1.3333333,830.39333,295.9356)"
       clip-path="url(#clipPath170)" />
    <path
       id="path171"
       d="m 0,0 c 0.692,0.157 1.211,0.724 1.3,1.42 0.213,1.587 0.317,3.15 0.31,4.69 -0.053,11.053 -0.053,21.997 0,32.83 0.005,0.178 0.152,0.32 0.33,0.32 l 16.22,-0.03 c 0.304,0 0.55,-0.242 0.55,-0.54 0.047,-12.293 0.047,-25.277 0,-38.95 -0.02,-6 -2.307,-9.903 -6.86,-11.71 -1.753,-0.693 -4.9,-1.03 -9.44,-1.01 -3.167,0.013 -6.33,-0.033 -9.49,-0.14 -0.502,-0.017 -0.923,0.377 -0.94,0.879 0,0.007 0,0.014 0,0.021 l -0.09,10.34 c -0.003,0.873 0.698,1.583 1.565,1.586 0.048,0 0.097,-0.002 0.145,-0.006 2.46,-0.213 4.593,-0.113 6.4,0.3"
       style="fill:#231f20;fill-opacity:1;fill-rule:nonzero;stroke:none"
       transform="matrix(1.3333333,0,0,-1.3333333,866.62,323.60227)"
       clip-path="url(#clipPath172)" />
    <path
       id="path173"
       d="m 0,0 c 0.032,0.64 -0.46,1.185 -1.1,1.217 l -0.559,0.029 c -0.64,0.032 -1.185,-0.46 -1.217,-1.1 v 0 l -0.072,-1.418 c -0.033,-0.64 0.46,-1.185 1.1,-1.218 l 0.559,-0.028 c 0.64,-0.032 1.185,0.46 1.217,1.1 v 0 z m 2.626,-8.756 c -1.87,1.62 -5.81,1.66 -7.78,0.2 -2.053,-1.527 -4.693,-1.984 -7.92,-1.37 -0.516,0.096 -0.856,0.593 -0.759,1.108 0.011,0.059 0.027,0.116 0.049,0.172 2.987,7.466 5.783,14.756 8.39,21.87 0.44,1.213 1.227,2.033 2.36,2.46 3.34,1.27 4.89,-0.97 5.94,-3.79 2.56,-6.82 5.18,-13.56 7.86,-20.22 0.4,-0.987 0.07,-1.54 -0.99,-1.66 -2.18,-0.25 -5.37,-0.32 -7.15,1.23"
       style="fill:#231f20;fill-opacity:1;fill-rule:nonzero;stroke:none"
       transform="matrix(1.3333333,0,0,-1.3333333,1085.2388,321.634)"
       clip-path="url(#clipPath174)" />
    <path
       id="path175"
       d="m 0,0 0.12,-9.18 c 0.005,-0.453 0.377,-0.815 0.83,-0.81 v 0 h 0.17 c 2.921,0.038 5.258,2.433 5.22,5.349 v 0.001 0.26 c -0.038,2.916 -2.438,5.248 -5.359,5.21 0,0 -0.001,0 -0.001,0 H 0.81 C 0.357,0.824 -0.005,0.453 0,0 Z m -8.05,7.74 c 0,0.298 0.242,0.54 0.54,0.54 L 1.01,8.26 C 8.178,8.248 13.98,3.032 13.97,-3.39 v -2.3 C 13.96,-12.113 8.141,-17.311 0.973,-17.3 H 0.97 l -8.52,0.02 c -0.298,0 -0.54,0.242 -0.54,0.54 z"
       style="fill:#231f20;fill-opacity:1;fill-rule:nonzero;stroke:none"
       transform="matrix(1.3333333,0,0,-1.3333333,1047.3667,311.88227)"
       clip-path="url(#clipPath176)" />
    <path
       id="path177"
       d="M 0,0 C 0.238,0.443 0.067,0.995 -0.382,1.233 -0.499,1.295 -0.628,1.332 -0.76,1.34 l -3.07,0.18 c -0.483,0.032 -0.856,0.436 -0.85,0.92 l 0.09,11.46 c 0,0.353 0.286,0.64 0.64,0.64 l 22.99,-0.02 c 0.519,0 0.94,-0.421 0.94,-0.94 0,-0.003 0,-0.007 0,-0.01 C 19.893,6.983 19.86,0.83 19.88,-4.89 19.887,-6.523 19.26,-8.157 18,-9.79 9.527,-20.717 -1.463,-25.247 -14.97,-23.38 c -7.7,1.07 -15.56,5.6 -20.38,11.71 -6.427,8.14 -8.587,17.647 -6.48,28.52 1.1,5.673 3.643,10.707 7.63,15.1 11.15,12.28 29.25,14.11 43.42,5.22 0.86,-0.542 1.117,-1.678 0.575,-2.538 C 9.777,34.604 9.759,34.577 9.74,34.55 L 0.11,20.81 c -0.553,-0.793 -1.644,-0.987 -2.437,-0.434 -0.011,0.008 -0.022,0.016 -0.033,0.024 -2.293,1.693 -5.217,2.42 -8.77,2.18 -10.6,-0.74 -15.48,-14.2 -8.43,-21.85 4.833,-5.24 10.747,-6.077 17.74,-2.51 0.8,0.407 1.407,1 1.82,1.78"
       style="fill:#231f20;fill-opacity:1;fill-rule:nonzero;stroke:none"
       transform="matrix(1.3333333,0,0,-1.3333333,966.79333,412.12227)"
       clip-path="url(#clipPath178)" />
    <path
       id="path179"
       d="m 0,0 c -0.453,-0.127 -0.807,-0.387 -1.06,-0.78 -3.28,-5.213 -6.7,-10.44 -10.26,-15.68 -0.347,-0.512 -1.044,-0.645 -1.556,-0.298 -0.12,0.082 -0.224,0.187 -0.304,0.308 l -10.58,16.17 c -0.231,0.354 -0.685,0.493 -1.08,0.33 -0.447,-0.193 -0.663,-0.49 -0.65,-0.89 0.233,-6.733 0.34,-13.227 0.32,-19.48 0,-0.593 -0.482,-1.074 -1.08,-1.08 l -18.08,-0.02 c -0.707,0 -1.063,0.357 -1.07,1.07 l -0.08,61.76 c 0,0.348 0.282,0.63 0.63,0.63 l 14.58,-0.11 c 1.127,-0.007 2,-0.477 2.62,-1.41 l 14.44,-21.47 c 0.372,-0.555 1.124,-0.703 1.679,-0.331 0.131,0.088 0.243,0.2 0.331,0.331 L 3.33,40.67 c 0.525,0.788 1.406,1.264 2.35,1.27 l 14.74,0.09 c 0.359,0 0.65,-0.287 0.65,-0.64 l -0.1,-61.86 c 0,-0.525 -0.425,-0.95 -0.95,-0.95 L 1.81,-21.4 c -0.619,0 -1.12,0.506 -1.12,1.13 0,0.006 0,0.013 0,0.02 L 1.01,-0.79 C 1.023,-0.077 0.687,0.187 0,0"
       style="fill:#231f20;fill-opacity:1;fill-rule:nonzero;stroke:none"
       transform="matrix(1.3333333,0,0,-1.3333333,562.26,413.3756)"
       clip-path="url(#clipPath180)" />
    <path
       id="path181"
       d="M 0,0 C -0.188,-0.454 0.028,-0.975 0.482,-1.163 0.59,-1.207 0.704,-1.23 0.82,-1.23 l 6.41,-0.04 c 0.491,-0.005 0.894,0.389 0.899,0.88 0.002,0.113 -0.019,0.225 -0.059,0.33 L 4.92,8.01 C 4.745,8.469 4.231,8.7 3.772,8.526 3.538,8.437 3.352,8.253 3.26,8.02 Z m 12.61,-15.25 c -4.473,0.093 -9.627,0.12 -15.46,0.08 -3.51,-0.02 -3.42,-1.71 -4.36,-4.38 -0.269,-0.761 -0.989,-1.273 -1.8,-1.28 l -17.38,-0.12 c -0.475,-0.004 -0.863,0.377 -0.868,0.852 -0.001,0.109 0.019,0.217 0.058,0.318 l 23.11,61.01 c 0.282,0.746 0.999,1.239 1.8,1.24 h 12.8 c 0.722,-10e-4 1.37,-0.446 1.63,-1.12 l 23.17,-61.12 c 0.166,-0.451 -0.061,-0.951 -0.506,-1.117 -0.097,-0.036 -0.2,-0.054 -0.304,-0.053 l -17.16,0.12 c -1.073,0.004 -2,0.757 -2.23,1.81 -0.267,1.247 -0.753,2.327 -1.46,3.24 -0.254,0.317 -0.634,0.507 -1.04,0.52"
       style="fill:#231f20;fill-opacity:1;fill-rule:nonzero;stroke:none"
       transform="matrix(1.3333333,0,0,-1.3333333,629.18,414.04227)"
       clip-path="url(#clipPath182)" />
    <path
       id="path183"
       d="m 0,0 c 0.06,-8.07 11.86,-8.22 11.91,0.14 0.087,12.96 0.067,26.103 -0.06,39.43 0,0.373 0.183,0.567 0.55,0.58 6.08,0.213 12.567,0.247 19.46,0.1 0.215,-0.005 0.385,-0.184 0.38,-0.4 v 0 C 32.12,28.043 32.147,15.923 32.32,3.49 32.51,-9.69 29.08,-19.98 15.27,-23.53 c -3.433,-0.887 -7.727,-1.187 -12.88,-0.9 -13.89,0.78 -22.67,9.49 -22.69,24.17 -0.013,12.733 -0.037,26.01 -0.07,39.83 0,0.453 0.223,0.68 0.67,0.68 l 19.14,0.01 c 0.287,0 0.52,-0.233 0.52,-0.52 0,-0.003 0,-0.007 0,-0.01 C -0.12,27.47 -0.107,14.227 0,0"
       style="fill:#231f20;fill-opacity:1;fill-rule:nonzero;stroke:none"
       transform="matrix(1.3333333,0,0,-1.3333333,860.14,411.08227)"
       clip-path="url(#clipPath184)" />
    <path
       id="path185"
       d="m 0,0 0.14,-26.16 c 0,-0.221 0.179,-0.4 0.4,-0.4 l 1.8,0.01 c 7.124,0.036 12.873,5.473 12.84,12.144 v 0.006 l -0.02,2.8 C 15.124,-4.931 9.322,0.446 2.2,0.41 L 0.4,0.4 C 0.179,0.4 0,0.221 0,0 Z m -20.33,17.91 c 0,0.155 0.125,0.28 0.28,0.28 L 3.27,18.35 C 20.699,18.47 34.918,5.509 35.03,-10.6 l 0.04,-4.54 c 0.113,-16.11 -13.926,-29.268 -31.355,-29.39 -0.002,0 -0.003,0 -0.005,0 l -23.32,-0.16 c -0.155,0 -0.28,0.125 -0.28,0.28 v 0 z"
       style="fill:#231f20;fill-opacity:1;fill-rule:nonzero;stroke:none"
       transform="matrix(1.3333333,0,0,-1.3333333,705.63333,382.14893)"
       clip-path="url(#clipPath186)" />
    <path
       id="path187"
       d="m 0,0 -0.04,-11.68 c -0.006,-0.69 0.55,-1.254 1.24,-1.26 0.003,0 0.007,0 0.01,0 h 0.5 c 4.444,-0.014 8.056,3.012 8.07,6.76 v 0.6 C 9.794,-1.83 6.202,1.223 1.756,1.24 H 1.75 1.25 C 0.564,1.24 0.005,0.686 0,0 m 0.1,-30.76 c -0.138,0.039 -0.282,-0.046 -0.321,-0.19 -0.006,-0.026 -0.01,-0.053 -0.009,-0.08 l 0.51,-12.89 c 0.028,-0.635 -0.469,-1.171 -1.109,-1.199 -0.017,-10e-4 -0.034,-10e-4 -0.051,-10e-4 l -18.44,-0.01 c -0.48,0 -0.87,0.39 -0.87,0.87 l -0.06,61.71 c 0,0.425 0.345,0.77 0.77,0.77 7.64,0.04 15.313,0.027 23.02,-0.04 13.3,-0.13 24.77,-7.76 26.3,-21.89 0.733,-6.8 -1,-12.607 -5.2,-17.42 -0.873,-1.007 -1.787,-1.92 -2.74,-2.74 -0.367,-0.313 -0.427,-0.68 -0.18,-1.1 l 11.14,-19.21 c 0.182,-0.303 0.079,-0.697 -0.23,-0.879 -0.1,-0.059 -0.214,-0.09 -0.33,-0.091 l -21.27,0.01 c -0.333,0 -0.637,0.097 -0.91,0.29 -1.027,0.74 -1.857,1.663 -2.49,2.77 -1.853,3.26 -3.683,6.503 -5.49,9.73 -0.48,0.847 -1.16,1.377 -2.04,1.59"
       style="fill:#231f20;fill-opacity:1;fill-rule:nonzero;stroke:none"
       transform="matrix(1.3333333,0,0,-1.3333333,786.50013,381.72227)"
       clip-path="url(#clipPath188)" />
    <path
       id="path189"
       d="m 0,0 c -0.232,-0.585 0.054,-1.248 0.64,-1.48 0.127,-0.05 0.263,-0.078 0.4,-0.08 L 6.67,-1.64 C 7.299,-1.65 7.818,-1.148 7.829,-0.519 7.831,-0.38 7.808,-0.241 7.76,-0.11 L 5.05,7.32 C 4.841,7.914 4.19,8.226 3.596,8.018 3.281,7.907 3.03,7.663 2.91,7.35 Z m -8.63,-21.24 -18.13,-0.03 c -0.414,0 -0.75,0.335 -0.75,0.75 0,0.092 0.017,0.184 0.05,0.27 l 23.57,61.87 c 0.112,0.289 0.39,0.48 0.7,0.48 l 14.27,-0.02 c 0.31,0 0.588,-0.191 0.7,-0.48 l 23.47,-61.91 c 0.149,-0.386 -0.043,-0.821 -0.43,-0.97 -0.086,-0.033 -0.178,-0.05 -0.27,-0.05 l -18.13,0.08 c -0.285,0.001 -0.545,0.164 -0.67,0.42 l -2.32,4.8 c -0.125,0.256 -0.385,0.419 -0.67,0.42 l -17.72,0.01 c -0.285,-0.001 -0.545,-0.164 -0.67,-0.42 l -2.33,-4.8 c -0.125,-0.256 -0.385,-0.419 -0.67,-0.42"
       style="fill:#231f20;fill-opacity:1;fill-rule:nonzero;stroke:none"
       transform="matrix(1.3333333,0,0,-1.3333333,1030.3268,413.50893)"
       clip-path="url(#clipPath190)" />
    <path
       id="path191"
       d="m 0,0 0.08,-25.44 c 0.006,-0.458 0.382,-0.826 0.84,-0.82 v 0 h 1.24 c 7.239,0.029 13.086,5.544 13.06,12.32 v 2.56 C 15.194,-4.604 9.303,0.868 2.063,0.84 H 2.06 0.82 C 0.362,0.835 -0.005,0.458 0,0 Z m -20.1,18.34 c 0,0.21 0.17,0.38 0.38,0.38 l 23.07,0.04 c 17.511,0.03 31.729,-12.998 31.76,-29.1 v -4.7 C 35.141,-31.143 20.971,-44.225 3.46,-44.26 l -23.07,-0.04 c -0.21,-0.006 -0.384,0.16 -0.39,0.37 0,0.003 0,0.007 0,0.01 z"
       style="fill:#231f20;fill-opacity:1;fill-rule:nonzero;stroke:none"
       transform="matrix(1.3333333,0,0,-1.3333333,1106.54,382.56227)"
       clip-path="url(#clipPath192)" />
    <path
       id="path193"
       d="M 0,0 C -0.177,-0.453 0.047,-0.963 0.5,-1.14 0.599,-1.178 0.704,-1.199 0.81,-1.2 L 7,-1.29 C 7.486,-1.297 7.886,-0.909 7.893,-0.423 7.894,-0.316 7.876,-0.21 7.84,-0.11 L 4.86,8.11 C 4.696,8.568 4.193,8.806 3.735,8.643 3.494,8.556 3.302,8.369 3.21,8.13 Z m -8.28,-20.85 -18.57,-0.06 c -0.342,0 -0.62,0.277 -0.62,0.62 0,0.075 0.013,0.15 0.04,0.22 l 23.62,62.11 c 0.091,0.241 0.322,0.4 0.58,0.4 h 14.42 c 0.258,0 0.489,-0.159 0.58,-0.4 l 23.69,-62.07 c 0.122,-0.32 -0.04,-0.678 -0.36,-0.8 -0.07,-0.026 -0.145,-0.04 -0.22,-0.04 l -18.56,0.02 c -0.249,0.001 -0.474,0.15 -0.57,0.38 l -1.97,4.8 c -0.098,0.233 -0.327,0.383 -0.58,0.38 L -5.18,-15.3 c -0.255,0.002 -0.485,-0.153 -0.58,-0.39 l -1.95,-4.78 c -0.096,-0.23 -0.321,-0.379 -0.57,-0.38"
       style="fill:#231f20;fill-opacity:1;fill-rule:nonzero;stroke:none"
       transform="matrix(1.3333333,0,0,-1.3333333,1190.38,414.00227)"
       clip-path="url(#clipPath194)" />
  </g>
</svg>
